<svg width="662" height="1189" viewBox="0 0 662 1189" fill="none" xmlns="http://www.w3.org/2000/svg">
<path fill-rule="evenodd" clip-rule="evenodd" d="M654 648.777V331.777C654 153.389 509.388 8.77734 331 8.77734C152.612 8.77734 8 153.389 8 331.777V648.777C8 827.165 152.612 971.777 331 971.777C509.388 971.777 654 827.165 654 648.777ZM331 0.777344C148.194 0.777344 0 148.971 0 331.777V648.777C0 831.584 148.194 979.777 331 979.777C513.806 979.777 662 831.584 662 648.777V331.777C662 148.971 513.806 0.777344 331 0.777344ZM605 646.777V333.777C605 182.451 482.326 59.7773 331 59.7773C179.674 59.7773 57 182.451 57 333.777V646.777C57 681.287 63.3799 714.307 75.0246 744.722C101.633 720.084 121.956 713.948 138.424 719.035C146.678 721.584 153.433 726.824 159.121 732.962C164.798 739.087 169.592 746.306 173.848 753.058C179.699 762.34 195.37 778.448 214.407 784.082C223.787 786.859 233.896 787.073 244.151 782.78C254.446 778.469 265.286 769.449 275.768 753.038C286.802 735.762 298.26 724.76 309.726 718.689C316.328 715.194 322.865 713.372 329.203 712.902C329.084 692.648 329.758 671.767 331.536 650.945L331.502 650.952L269.669 598.228L269.643 598.205C244.575 575.821 193.484 553.495 142.365 560.564C138.178 561.474 131.373 562.5 124.245 562.691C117.144 562.881 109.276 562.26 103.38 559.523L103.284 559.479L103.191 559.427C101.313 558.388 99.2578 557.071 97.5836 555.659C96.7474 554.953 95.9394 554.168 95.2902 553.326C94.6664 552.516 94.0229 551.442 93.8258 550.172C93.603 548.738 93.994 547.285 95.0656 546.127C96.0157 545.1 97.3198 544.498 98.6353 544.115C101.263 543.349 105.205 543.103 110.7 543.372C112.175 543.41 114.777 543.26 117.566 542.659C120.338 542.063 123.028 541.077 124.986 539.613C128.949 535.692 135.971 530.778 144.608 528.341C153.441 525.848 164.04 525.936 174.611 532.408L174.708 532.467L174.799 532.533C179.075 535.615 186.905 539.775 196.2 541.977C205.449 544.167 215.91 544.366 225.74 539.913C232.566 536.219 243.313 532.783 253.132 535.206C258.167 536.449 262.906 539.228 266.601 544.169C270.243 549.039 272.739 555.829 273.71 564.928C275.04 570.985 281.989 585.047 299.356 591.087L299.465 591.125L299.571 591.171C299.795 591.269 300.022 591.368 300.253 591.468L300.939 591.767L300.939 591.767C307.246 594.508 315.691 598.178 323.159 603.776C327.84 607.286 332.208 611.603 335.488 616.991C337.732 602.006 340.652 587.252 344.37 572.994C345.856 567 347.418 559.924 348.958 551.965L347.182 550.626C339.216 544.619 321.956 533.726 300.223 524.31C299.742 524.234 299.273 524.04 298.865 523.725C287.422 518.842 274.787 514.398 261.646 511.298C255.445 512.374 245.565 512.991 234.997 511.552C224.078 510.066 212.127 506.344 202.778 498.359L202.761 498.345L202.745 498.33C201.108 496.891 193.45 493.32 179.941 497.754L179.753 497.816L179.559 497.852C162.988 500.965 122.339 500.298 90.9784 472.805L90.8566 472.698L90.747 472.579C88.215 469.823 85.3921 464.9 84.7529 458.768C84.1048 452.551 85.7239 445.276 91.7915 438.015C94.2754 434.377 98.7514 429.152 104.371 424.931C109.995 420.707 117.172 417.188 124.865 417.844C131.99 418.108 143.262 418.217 153.967 417.695C159.339 417.432 164.523 417.013 168.947 416.383C173.446 415.743 176.892 414.92 178.955 413.963L179.062 413.913L179.173 413.872C182.092 412.787 186.687 411.357 191.039 410.59C193.206 410.207 195.44 409.967 197.432 410.062C199.296 410.151 201.579 410.558 203.206 412.078L203.446 412.303L203.632 412.574C205.315 415.03 207.923 418.892 210.287 422.505C212.404 425.742 214.465 428.988 215.399 430.776C223.352 439.321 236.058 452.177 248.675 463.354C255.062 469.012 261.383 474.201 267.023 478.173C272.761 482.214 277.467 484.756 280.692 485.485C281.53 485.674 282.339 485.844 283.14 485.99C283.278 485.985 283.414 485.979 283.546 485.973C284.082 485.948 284.591 486.065 285.038 486.291C292.321 487.258 300.145 486.01 323.034 479.583C323.227 479.506 323.428 479.45 323.631 479.415C324.871 479.066 326.155 478.702 327.484 478.322L327.524 478.311L327.563 478.301C329.548 477.792 331.329 478.785 332.546 479.868C333.845 481.024 335.119 482.789 336.367 485.198C338.812 489.921 341.467 497.729 343.922 510.18C347.161 513.391 351.051 518.284 353.663 523.929C356.357 505.228 358.574 483.988 359.591 461.688C360.186 448.636 360.368 435.25 359.999 421.819C342.152 424.619 304.395 423.145 271.901 397.726L271.883 397.712L271.86 397.693L271.831 397.67L271.805 397.648L271.791 397.636C271.775 397.622 271.76 397.608 271.745 397.595C271.732 397.584 271.72 397.572 271.708 397.561C271.673 397.528 271.638 397.495 271.605 397.461C269.09 394.89 257.132 389.477 233.982 400.767C225.4 405.453 201.319 408.263 166.923 389.37C161.716 390.263 154.182 391.125 147.213 391.004C143.491 390.939 139.792 390.592 136.648 389.753C133.598 388.939 130.521 387.519 128.764 384.88C128.063 383.827 128.097 382.448 128.85 381.432C129.56 380.473 130.855 379.296 132.025 378.232L132.025 378.232L132.026 378.231L132.027 378.231L132.027 378.23L132.293 377.989L132.293 377.988L132.294 377.988L132.295 377.987L132.295 377.987C133.582 376.817 134.995 375.533 136.329 374.148C137.723 372.7 138.926 371.246 139.739 369.85C140.562 368.437 140.841 367.33 140.771 366.485C140.749 366.21 140.764 365.933 140.818 365.662C140.888 365.3 140.941 364.842 141.009 364.178L141.03 363.971C141.089 363.388 141.16 362.694 141.265 361.969C141.503 360.322 141.94 358.343 142.987 356.338C145.095 352.304 149.261 348.913 157.048 347.029C167.014 337.021 184.124 323.634 204.055 315.068C224.25 306.389 247.787 302.484 269.715 312.711C292.028 315.168 336.023 335.38 358.484 394.993C356.321 370.221 351.943 345.964 344.462 324.071C344.413 323.927 344.373 323.783 344.341 323.639C341.028 323.502 337.695 322.111 335.57 320.914L335.508 320.879L335.448 320.841C290.28 292.492 227.679 290.273 163.801 292.4L163.75 292.402L163.698 292.402C149.597 292.388 139.742 285.74 133.268 277.555C126.896 269.497 123.742 259.906 122.759 253.413C122.083 250.142 122.542 247.218 123.868 244.725C125.176 242.265 127.22 240.421 129.398 239.056C133.701 236.357 139.098 235.166 142.728 234.846L142.998 234.822L143.267 234.847C163.133 236.677 171.456 226.375 173.239 221.703C175.502 211.177 181.728 204.635 188.551 200.821C195.323 197.035 202.691 195.917 207.516 196.05L207.657 196.054L207.797 196.071C221.538 197.747 241.734 194.564 250.191 192.719L250.311 192.693L250.432 192.677C270.419 189.999 288.983 201.843 303.714 216.753C318.305 231.522 329.773 249.927 336.025 262.652C338.914 264.963 341.384 267.503 343.489 270.183C343.425 265.571 344.031 260.869 344.957 256.458C346.76 247.866 349.887 239.883 352.373 234.838C350.739 186.317 372.604 156.68 384.395 147.638C384.433 147.609 384.472 147.581 384.512 147.553C384.527 147.542 384.543 147.532 384.559 147.521C384.571 147.513 384.583 147.505 384.595 147.497C384.611 147.487 384.627 147.477 384.643 147.467C408.933 132.447 430.695 131.873 446.619 138.194C462.307 144.422 472.485 157.514 472.732 169.65C473.18 191.703 489.248 200.017 496.017 201.498C514.288 205.091 523.742 213.358 527.626 222.862C531.288 231.825 529.704 241.204 527.089 247.363C527.349 254.721 523.485 260.136 518.889 263.774C514.542 267.216 509.324 269.271 505.497 270.215C500.347 275.214 493.228 276.864 486.792 277.066C480.22 277.273 473.855 275.996 469.799 274.694C454.08 273.413 433.1 276.731 413.001 281.538C392.831 286.363 373.869 292.608 362.609 296.873L362.584 296.883L362.548 296.896C359.525 297.967 356.766 298.156 354.327 297.433L354.268 297.415C355.086 304.165 354.739 310.226 353.981 314.399C353.806 316.948 353.079 319.115 351.693 320.745C351.828 320.975 351.943 321.222 352.032 321.484C360.764 347.038 365.36 375.537 367.204 404.206C367.516 403.811 367.837 403.415 368.167 403.019C374.581 392.894 384.373 377.306 389.633 368.914C403.003 346.641 424.764 324.001 434.069 315.359C439.785 309.244 447.742 306.99 454.989 306.502C462.189 306.018 469.096 307.242 473.41 308.565C490.59 311.741 500.753 311.394 506.848 310.167C509.885 309.556 511.928 308.723 513.346 307.981C514.371 307.444 514.931 307.058 515.503 306.663L515.504 306.663L515.505 306.662L515.506 306.661C515.839 306.431 516.177 306.198 516.612 305.931C521.906 302.626 527.091 301.432 531.997 301.861C536.868 302.287 541.227 304.29 544.961 306.989C552.098 312.15 557.335 320.13 560.131 326.109C561.312 326.859 562.27 327.726 562.957 328.518C562.975 328.539 562.993 328.56 563.01 328.581C563.048 328.628 563.085 328.675 563.12 328.724C567.468 334.727 569.214 339.439 569.089 343.122C568.954 347.064 566.662 349.541 564.085 350.346C563.58 350.504 563.042 350.526 562.525 350.408C554.677 348.625 548.913 350.213 546.043 351.87C533.767 363.889 517.775 362.189 511.171 359.805C510.944 359.723 510.727 359.613 510.526 359.479C508.375 358.045 504.922 357.572 500.963 357.851C497.367 358.104 493.861 358.939 491.614 359.67C486.429 363.532 478.615 365.963 471.292 367.495C463.722 369.077 456.173 369.795 451.434 369.976C436.082 371.926 418.894 379.742 403.477 388.935C388.451 397.894 375.386 407.991 367.759 414.715C368.248 426.471 368.302 438.198 368.017 449.706C372.531 443.412 378.671 439.444 384.949 436.841C392.327 433.783 400.102 432.531 405.865 431.603L406.535 431.495C406.733 431.463 406.929 431.431 407.121 431.4L407.236 431.381L407.351 431.371C422.712 430.072 431.266 420.105 433.595 415.502C436.327 408.176 439.848 403.043 443.948 399.739C448.117 396.378 452.707 395.058 457.21 395.095C465.956 395.168 474.178 400.332 479.06 404.845C486.112 410.491 494.654 412.51 502.659 412.652C510.711 412.795 517.974 411.031 522.092 409.414L522.197 409.372L522.305 409.339C532.511 406.193 541.386 408.384 548.221 412.347C554.878 416.206 559.671 421.772 562.146 425.888C563.394 427.424 565.327 428.758 567.445 429.813C569.579 430.877 571.653 431.535 572.842 431.807C577.43 432.745 580.683 433.789 582.752 435.012C583.788 435.624 584.813 436.446 585.434 437.593C586.141 438.897 586.159 440.32 585.621 441.576C585.149 442.679 584.328 443.484 583.615 444.042C582.87 444.625 582.009 445.117 581.155 445.53C579.444 446.358 577.445 447.018 575.663 447.483L575.56 447.51L575.455 447.529C569.92 448.561 563.228 447.392 557.405 445.736C551.557 444.072 546.152 441.789 542.872 440.148C502.419 423.633 455.806 431.237 430.56 444.335L430.529 444.351L368.323 474.841L367.003 474.194C366.972 474.179 366.942 474.164 366.911 474.149C364.202 515.711 357.674 552.579 352.13 574.943L352.124 574.966L352.118 574.99C349.926 583.393 348.015 591.981 346.36 600.698C348.412 598.842 350.556 597.66 352.405 597.071C354.077 596.507 355.194 595.217 355.923 593.491C356.672 591.717 356.873 589.768 356.824 588.602C356.823 588.56 356.822 588.519 356.822 588.477C356.822 586.303 357.905 584.394 358.826 583.127C359.799 581.788 360.947 580.683 361.763 580.03L361.793 580.007L361.815 579.989L361.838 579.972C361.871 579.948 361.904 579.924 361.938 579.901C370.97 573.691 376.663 563.041 378.35 558.505C384.749 538.422 398.626 528.386 405.275 525.784C405.462 525.711 405.656 525.657 405.854 525.622C405.831 525.626 405.834 525.625 405.862 525.61C405.967 525.555 406.43 525.312 407.271 524.458C408.229 523.485 409.363 522.046 410.641 520.169C413.186 516.428 416.072 511.289 419.015 505.532C424.888 494.04 430.823 480.41 434.491 471.366C434.51 471.319 434.531 471.272 434.553 471.225C436.039 468.039 438.801 466.009 441.842 464.741C444.873 463.478 448.413 462.867 451.932 462.633C458.319 462.207 465.178 462.99 470.045 463.927C474.865 460.303 481.224 459.382 486.648 459.753C489.646 459.958 492.526 460.565 494.958 461.45C496.253 461.922 497.524 462.509 498.642 463.223C499.924 462.39 501.39 461.802 502.826 461.369C505.342 460.612 508.259 460.19 511.169 459.973C516.972 459.541 523.204 459.893 527.217 460.35C533.696 460.863 542.938 464.06 551.569 467.633C560.317 471.254 568.85 475.442 574.074 478.214C574.112 478.233 574.15 478.253 574.187 478.274L574.213 478.289L574.23 478.299L574.26 478.317C574.351 478.372 574.439 478.431 574.522 478.495C574.903 478.783 575.211 479.158 575.419 479.593C575.425 479.605 575.43 479.617 575.436 479.629C576.116 481.071 576.317 482.648 575.82 484.203C575.344 485.696 574.338 486.814 573.287 487.631C571.249 489.214 568.289 490.245 565.334 490.965C559.338 492.426 551.737 492.97 546.55 493.042C535.848 494.082 520.952 500.151 503.573 509.706C486.234 519.24 466.779 532.039 447.146 546.115C407.884 574.262 368.117 607.366 343.502 629.253C343.013 629.688 342.405 629.943 341.776 629.999C341.538 631.9 341.31 633.804 341.092 635.711C341.102 637.811 340.893 639.943 340.42 641.907C337.98 665.671 337.062 689.722 337.204 713.014C339.176 713.214 341.122 713.54 343.037 713.98C363.606 718.708 380.04 736.433 388.454 752.287C394.913 763.991 406.834 777.422 421.495 781.264C428.686 783.148 436.702 782.783 445.42 778.573C454.219 774.325 463.915 766.069 474.124 751.857C484.893 736.865 496.185 727.558 507.55 722.644C518.955 717.713 530.16 717.326 540.491 719.728C559.376 724.118 575.257 737.783 584.947 749.863C597.877 718.042 605 683.241 605 646.777ZM581.387 758.221C581.165 758.029 580.96 757.809 580.779 757.562C572.028 745.675 556.56 731.677 538.68 727.52C529.847 725.466 520.407 725.801 510.725 729.987C501.005 734.19 490.772 742.394 480.621 756.525C469.91 771.435 459.264 780.773 448.899 785.778C438.453 790.821 428.483 791.365 419.467 789.003C401.726 784.354 388.356 768.68 381.432 756.122C381.422 756.103 381.411 756.084 381.401 756.064C373.593 741.336 358.717 725.792 341.245 721.777C332.649 719.801 323.278 720.567 313.469 725.76C303.585 730.992 293.056 740.833 282.51 757.344C271.411 774.721 259.428 785.056 247.24 790.159C235.013 795.278 222.978 794.962 212.137 791.753C190.73 785.418 173.645 767.739 167.081 757.324C162.854 750.619 158.39 743.942 153.254 738.4C148.128 732.869 142.514 728.671 136.063 726.678C123.486 722.794 105.595 726.774 78.7503 752.193C78.5757 752.358 78.3902 752.505 78.1962 752.632C79.7917 756.438 81.4708 760.201 83.2309 763.917C103.958 750.782 120.405 750.09 133.88 756.772C147.619 763.586 157.261 777.679 165.05 789.979C171.24 799.753 187.813 816.714 207.968 822.651C217.909 825.579 228.632 825.807 239.51 821.274C250.427 816.725 261.894 807.216 272.969 789.959C284.6 771.833 296.665 760.311 308.718 753.959C320.845 747.569 332.751 746.53 343.702 749.035C365.315 753.979 382.613 772.532 391.477 789.157C398.302 801.467 410.919 815.635 426.478 819.693C434.119 821.686 442.636 821.296 451.884 816.852C461.212 812.37 471.468 803.669 482.252 788.727C499.164 765.295 517.259 755.191 534.746 753.752C550.738 752.436 565.48 758.433 577.436 766.691C578.8 763.894 580.117 761.07 581.387 758.221ZM130.325 763.939C119.936 758.787 106.255 758.56 86.7834 771.141C92.2305 781.816 98.3569 792.087 105.106 801.896C121.447 795.909 134.556 798.652 145.247 805.919C156.147 813.33 164.278 825.284 171.051 835.979C177.24 845.753 193.813 862.714 213.968 868.651C223.909 871.579 234.632 871.807 245.51 867.274C256.427 862.725 267.894 853.216 278.969 835.959C290.6 817.833 302.665 806.311 314.719 799.959C326.845 793.569 338.752 792.53 349.702 795.035C371.315 799.979 388.613 818.532 397.478 835.157C404.303 847.467 416.919 861.635 432.478 865.693C440.12 867.686 448.636 867.296 457.885 862.852C467.213 858.37 477.469 849.669 488.252 834.727C499.95 818.519 512.221 808.665 524.534 803.658C535.964 799.011 547.167 798.649 557.538 800.956C563.453 792.282 568.882 783.251 573.788 773.902C562.616 765.969 549.344 760.577 535.402 761.725C520.844 762.923 504.676 771.327 488.739 793.409C477.449 809.051 466.242 818.828 455.349 824.063C444.378 829.335 433.917 829.901 424.459 827.434C405.829 822.575 391.759 806.177 384.464 793.007L384.441 792.965L384.433 792.949C376.181 777.456 360.443 761.071 341.918 756.833C332.793 754.746 322.847 755.557 312.448 761.037C301.975 766.555 290.841 776.921 279.702 794.279C268.006 812.505 255.393 823.323 242.587 828.659C229.743 834.011 217.103 833.682 205.707 830.325C183.19 823.692 165.201 805.169 158.292 794.259C150.373 781.755 141.786 769.623 130.325 763.939ZM552.471 808.138C544.494 806.907 536.108 807.589 527.547 811.069C516.957 815.375 505.795 824.09 494.739 839.409C483.45 855.051 472.242 864.828 461.35 870.063C450.378 875.335 439.917 875.901 430.459 873.434C411.829 868.575 397.759 852.177 390.464 839.007C390.454 838.987 390.443 838.968 390.433 838.949C382.181 823.456 366.444 807.071 347.918 802.833C338.793 800.746 328.847 801.557 318.448 807.037C307.975 812.555 296.841 822.921 285.702 840.279C274.006 858.505 261.393 869.323 248.587 874.659C235.744 880.011 223.103 879.682 211.708 876.325C189.19 869.692 171.201 851.169 164.292 840.259C157.467 829.482 150.11 818.899 140.749 812.535C132.644 807.026 122.843 804.549 109.936 808.693C145.51 857.181 196.652 893.533 255.998 910.386C263.632 904.943 271.394 896.763 278.969 884.959C290.6 866.833 302.665 855.311 314.718 848.959C326.845 842.569 338.751 841.53 349.702 844.035C371.315 848.979 388.614 867.533 397.478 884.158C399.586 887.96 402.899 893.063 407.036 897.407C411.206 901.786 415.826 904.987 420.543 905.812C473.915 887.365 519.81 852.888 552.471 808.138ZM290.082 917.743C281.827 916.507 273.692 914.902 265.695 912.947C272.563 907.083 279.27 899.301 285.702 889.279C296.841 871.921 307.975 861.555 318.448 856.037C328.847 850.557 338.793 849.746 347.918 851.833C366.444 856.071 382.181 872.456 390.433 887.949L390.454 887.987L390.464 888.007C392.777 892.182 396.476 897.919 401.242 902.924C403.511 905.306 406.114 907.619 409.012 909.512C401.41 911.766 393.671 913.698 385.809 915.294C375.263 903.191 360.521 892.699 343.458 891.012C326.325 889.319 307.87 896.591 290.082 917.743ZM299.636 919.002C309.928 920.175 320.394 920.777 331 920.777C346.505 920.777 361.71 919.489 376.513 917.015C367.183 907.49 355.437 900.235 342.672 898.973C329.768 897.698 314.963 902.471 299.636 919.002ZM331 51.7773C175.256 51.7773 49 178.033 49 333.777V646.777C49 802.522 175.256 928.777 331 928.777C486.744 928.777 613 802.522 613 646.777V333.777C613 178.033 486.744 51.7773 331 51.7773ZM386.949 385.052C386.694 385.265 386.439 385.478 386.184 385.692C389.452 380.493 392.504 375.63 394.732 372.076C394.743 372.06 394.753 372.043 394.763 372.026C407.755 350.372 429.159 328.094 438.23 319.683L438.243 319.67L438.261 319.654L438.289 319.626C438.31 319.606 438.331 319.585 438.351 319.564L438.37 319.544L438.392 319.521C442.67 314.9 448.923 312.924 455.392 312.488C461.844 312.054 468.095 313.19 471.795 314.346C471.848 314.363 471.901 314.378 471.955 314.391C472.017 314.407 472.079 314.421 472.143 314.432C489.858 317.722 500.898 317.485 508.032 316.049C511.62 315.327 514.202 314.305 516.128 313.297C517.466 312.597 518.739 311.73 519.378 311.294C519.498 311.213 519.595 311.146 519.667 311.099C519.703 311.075 519.732 311.056 519.755 311.043L519.78 311.027C524.083 308.338 527.985 307.533 531.474 307.839C535.003 308.147 538.349 309.613 541.445 311.851C545.944 315.104 549.686 319.827 552.346 324.254C549.838 324.566 547.24 325.766 544.77 328.164C544.071 328.611 542.638 329.14 540.751 328.854C538.794 328.558 536.048 327.333 533.022 323.595C532.989 323.555 532.955 323.515 532.92 323.476C530.582 320.878 524.953 318.485 517.963 322.156C513.282 320.41 506.404 319.224 499.178 320.666C491.034 322.291 482.613 327.231 476.573 338.017C476.509 338.131 476.453 338.248 476.405 338.369C475.274 341.195 472.5 345.366 467.976 348.254C463.558 351.075 457.334 352.768 448.947 350.58C445.776 349.753 440.607 348.542 434.943 348.863C437.53 346.521 440.524 344.021 443.775 341.559C445.814 342.659 449.013 343.753 452.57 343.777C456.369 343.803 460.658 342.596 464.189 338.829C465.322 337.62 465.26 335.721 464.052 334.588C462.843 333.455 460.944 333.517 459.811 334.726C457.63 337.053 455.063 337.794 452.611 337.777C451.549 337.77 450.525 337.618 449.6 337.392C456.934 332.454 464.775 328.344 471.695 326.696C473.307 326.312 474.302 324.694 473.918 323.082C473.535 321.471 471.917 320.475 470.305 320.859C461.038 323.067 450.89 328.933 442.317 335.169C434.147 341.112 427.08 347.633 423.235 352.202C418.907 354.69 414.96 358.772 412.038 365.141C410.06 366.812 407.058 369.136 403.41 371.961L403.407 371.964L403.406 371.964L403.404 371.966C402.965 372.306 402.518 372.652 402.061 373.006C397.515 376.529 392.195 380.677 386.949 385.052ZM427.078 356.942C426.7 357.306 426.244 357.554 425.76 357.68C422.54 359.666 419.549 362.929 417.249 368.185C417.07 368.594 416.802 368.958 416.464 369.251C414.376 371.059 411.026 373.653 407.115 376.681C406.663 377.031 406.203 377.387 405.736 377.749C401.193 381.269 395.948 385.359 390.792 389.66C390.496 389.907 390.2 390.154 389.906 390.402C393.263 388.17 396.778 385.943 400.404 383.781C416.11 374.416 434.203 366.083 450.818 364.006C450.852 364.002 450.885 363.998 450.919 363.995C450.941 363.993 450.963 363.992 450.985 363.99C451.017 363.988 451.049 363.986 451.081 363.985C455.519 363.824 462.798 363.141 470.064 361.621C477.446 360.078 484.318 357.769 488.341 354.62C488.603 354.415 488.898 354.255 489.212 354.147C491.836 353.242 496.095 352.178 500.542 351.865C504.749 351.569 509.707 351.9 513.514 354.268C519.053 356.139 532.165 357.265 542.069 347.362C542.232 347.198 542.414 347.054 542.611 346.932C546.67 344.419 553.752 342.558 562.701 344.313C562.885 344.075 563.067 343.655 563.092 342.919C563.15 341.223 562.325 337.886 558.345 332.36C557.579 331.516 556.197 330.531 554.606 330.25C553.168 329.996 551.176 330.24 548.812 332.604C548.703 332.712 548.587 332.812 548.464 332.902C546.594 334.274 543.498 335.338 539.854 334.787C536.158 334.228 532.179 332.058 528.424 327.451C527.819 326.832 524.852 324.857 519.78 328.027C518.938 328.553 517.891 328.629 516.982 328.229C513.286 326.603 506.963 325.231 500.352 326.55C493.917 327.834 487.048 331.69 481.898 340.789C480.322 344.61 476.82 349.727 471.205 353.312C465.389 357.025 457.447 358.998 447.433 356.386C443.653 355.4 437.892 354.139 432.183 355.23C430.479 355.555 428.757 356.094 427.078 356.942ZM563.914 485.136C566.324 484.548 568.092 483.871 569.166 483.198C547.48 478.61 533.367 476.681 523.765 476.962C513.985 477.248 509.337 479.803 506.036 483.861C502.857 488.217 493.692 499.284 488.364 505.373L488.298 505.448L488.228 505.519C477.437 516.31 461.458 522.809 446.21 526.615C431.029 530.405 416.171 531.623 406.959 531.579C401.628 533.907 389.681 542.641 384.047 560.389C384.033 560.432 384.018 560.476 384.002 560.518C382.105 565.667 375.838 577.576 365.437 584.775C364.976 585.156 364.264 585.85 363.679 586.654C363.037 587.539 362.837 588.159 362.823 588.444C362.888 590.33 362.584 593.14 361.45 595.825C360.281 598.594 358.097 601.498 354.285 602.769L354.271 602.773L354.239 602.784C351.357 603.694 344.62 608.417 344.208 620.622C369.116 598.742 406.586 567.811 443.65 541.238C463.383 527.091 483.053 514.142 500.683 504.449C518.208 494.813 534.078 488.187 546.107 487.057C546.187 487.049 546.268 487.045 546.35 487.044C551.334 486.982 558.5 486.455 563.914 485.136ZM523.589 470.964C530.264 470.769 538.746 471.557 549.743 473.371C549.587 473.306 549.431 473.241 549.274 473.177C540.59 469.581 532.121 466.745 526.699 466.328L526.665 466.325L526.636 466.323C526.62 466.321 526.604 466.319 526.587 466.318C522.84 465.887 516.97 465.558 511.615 465.957C508.932 466.157 506.493 466.531 504.556 467.115C502.532 467.724 501.495 468.431 501.08 468.975C500.528 469.697 499.678 470.129 498.77 470.151C497.861 470.174 496.992 469.783 496.405 469.088C495.975 468.579 494.854 467.797 492.906 467.089C491.044 466.411 488.721 465.909 486.238 465.739C481.167 465.392 476.086 466.458 472.858 469.377C472.141 470.026 471.156 470.289 470.211 470.085C465.687 469.106 458.654 468.198 452.331 468.62C449.167 468.83 446.346 469.364 444.151 470.279C441.999 471.176 440.679 472.335 440.019 473.701C436.308 482.844 430.319 496.599 424.357 508.263C421.373 514.101 418.355 519.497 415.601 523.545C415.167 524.182 414.735 524.794 414.304 525.376C420.318 525.04 427.58 524.263 435.264 522.846C435.525 519.172 436.331 513.501 437.956 507.475C439.668 501.124 442.354 494.134 446.46 488.672C447.455 487.348 449.336 487.082 450.661 488.077C451.985 489.073 452.251 490.954 451.256 492.278C447.803 496.871 445.368 503.033 443.749 509.037C442.898 512.194 442.29 515.239 441.879 517.886C446.406 514.846 452.187 510.38 457.971 505.122C466.277 497.573 474.266 488.68 478.522 480.405C479.28 478.931 481.089 478.351 482.562 479.109C484.035 479.867 484.616 481.675 483.858 483.149C479.114 492.374 470.502 501.84 462.007 509.562C457.994 513.21 453.934 516.534 450.219 519.313C463.106 515.533 475.447 509.778 483.915 501.346C489.253 495.241 498.273 484.334 501.23 480.267L501.275 480.206L501.323 480.147C506.031 474.317 512.564 471.287 523.589 470.964ZM304.753 519.744C312.131 523.015 318.973 526.434 325.097 529.756C325.347 529.456 325.619 529.047 325.885 528.501C326.504 527.228 326.975 525.419 327.031 523.161C327.143 518.675 325.604 512.587 320.668 506.029C319.672 504.705 319.938 502.824 321.261 501.828C322.585 500.832 324.466 501.097 325.462 502.421C331.117 509.935 333.178 517.323 333.03 523.31C332.956 526.288 332.331 528.964 331.281 531.125C331.016 531.669 330.716 532.197 330.379 532.696C337.854 536.964 343.99 540.938 348.371 544.061C351.341 539.309 351.099 534.007 349.187 528.786C346.943 522.658 342.508 517.08 339.098 513.86L338.396 513.196L338.212 512.247C335.755 499.502 333.164 492.061 331.038 487.957C329.971 485.895 329.101 484.833 328.558 484.351C328.529 484.324 328.501 484.3 328.475 484.279C327.553 484.541 326.653 484.797 325.773 485.045C321.692 489.358 314.951 492.4 308.584 494.518C302.121 496.668 295.477 498.042 290.992 498.761C287.163 501.823 281.866 504.434 276.862 506.454C275.482 507.012 274.106 507.532 272.763 508.01C281.932 510.649 290.761 513.841 299.018 517.279C299.114 515.208 298.286 511.577 293.662 506.334C292.566 505.092 292.685 503.196 293.927 502.1C295.17 501.004 297.066 501.123 298.162 502.365C304.375 509.409 305.76 515.568 304.753 519.744ZM292.017 492.5C288.624 492.7 285.73 492.504 282.751 492.009C282.103 492.03 281.429 492.047 280.729 492.064L280.721 492.064L280.714 492.065H280.713C274.738 492.213 266.965 492.405 258.92 495.999L258.831 496.038L258.741 496.072C253.622 497.973 245.651 498.377 233.531 496.308C221.347 494.229 204.634 489.59 181.794 481.03C169.049 477.179 136.605 470.516 101.494 473.54C129.821 494.175 163.851 494.638 178.263 491.99C193.033 487.2 203.017 490.598 206.689 493.808C214.844 500.767 225.534 504.209 235.806 505.607C245.921 506.984 255.344 506.339 260.933 505.331C261.075 505.274 261.222 505.227 261.376 505.19C264.513 504.451 269.536 502.942 274.616 500.891C279.749 498.818 284.655 496.303 287.768 493.643L288.42 493.086L289.268 492.957C290.096 492.832 291.019 492.68 292.017 492.5ZM183.627 475.316C177.608 473.49 167.419 471.072 154.689 469.275C152.691 465.782 150.722 461.908 150.86 456.349C150.863 456.243 150.866 456.136 150.87 456.027L150.875 455.872C150.879 455.76 150.884 455.647 150.889 455.531L150.896 455.347C151.034 451.949 151.224 447.295 146.676 443.592C145.391 442.545 143.501 442.739 142.455 444.023C141.409 445.308 141.602 447.198 142.887 448.244C145.036 449.994 144.989 451.645 144.886 455.316L144.886 455.33L144.874 455.738C144.87 455.888 144.866 456.042 144.862 456.2C144.738 461.189 145.964 465.156 147.435 468.356C132.001 466.623 113.686 465.975 94.8681 468.183C93.1708 466.189 91.1848 462.6 90.7205 458.146C90.2412 453.548 91.3595 447.84 96.4816 441.76L96.5834 441.639L96.6719 441.508C98.8238 438.328 102.897 433.542 107.974 429.729C113.094 425.883 118.823 423.33 124.413 423.828L124.49 423.834L124.567 423.837C131.819 424.107 143.308 424.222 154.259 423.687C159.733 423.42 165.118 422.989 169.792 422.323C174.333 421.677 178.466 420.777 181.366 419.458C184.061 418.463 188.236 417.176 192.08 416.499C194.035 416.154 195.779 415.99 197.145 416.055C197.823 416.088 198.328 416.174 198.681 416.28C198.728 416.294 198.77 416.307 198.808 416.321C198.874 416.344 198.928 416.366 198.97 416.386C200.636 418.823 203.062 422.421 205.266 425.79C207.66 429.45 209.627 432.594 210.205 433.802L210.403 434.214L210.713 434.549C218.742 443.193 231.744 456.372 244.696 467.845C251.169 473.58 257.675 478.928 263.568 483.078C265.532 484.461 267.465 485.739 269.338 486.864C265.332 487.46 260.966 488.526 256.567 490.478C252.914 491.806 246.217 492.387 234.54 490.394C233.572 490.229 232.572 490.046 231.539 489.846C230.194 482.08 224.454 466.463 209.969 452.908C209.076 452.006 207.704 450.257 206.697 448.111C205.673 445.93 205.158 443.625 205.573 441.498C205.891 439.872 204.83 438.297 203.204 437.979C201.578 437.661 200.002 438.722 199.684 440.348C198.938 444.17 199.931 447.817 201.265 450.66C202.603 453.512 204.416 455.841 205.759 457.184L205.795 457.22L205.832 457.255C217.898 468.529 223.283 481.24 225.108 488.458C216.907 486.526 206.981 483.615 194.999 479.433C194.31 472.799 189.262 457.298 174.622 444.147C173.805 443.352 172.548 441.797 171.64 439.883C170.717 437.939 170.285 435.909 170.696 434.032C171.05 432.414 170.026 430.814 168.407 430.46C166.789 430.105 165.189 431.13 164.835 432.749C164.041 436.373 164.962 439.805 166.219 442.455C167.478 445.109 169.206 447.263 170.496 448.504L170.534 448.54L170.573 448.575C182.055 458.873 186.954 470.615 188.504 477.114C186.97 476.555 185.406 475.976 183.81 475.378L183.719 475.344L183.627 475.316ZM319.56 608.577C326.025 613.424 331.475 619.695 333.933 628.252C333.283 633.374 332.708 638.515 332.203 643.665L273.614 593.706C247.399 570.315 194.553 547.245 141.425 554.637L141.31 554.653L141.196 554.678C137.346 555.522 130.859 556.512 124.085 556.693C120.618 556.786 117.189 556.663 114.053 556.244C118.228 553.865 122.816 549.955 128.919 544.159L128.95 544.135L129.086 543.998C132.402 540.673 138.62 536.265 146.238 534.115C153.74 531.997 162.523 532.079 171.386 537.469C176.268 540.967 184.768 545.435 194.817 547.815C204.949 550.214 216.896 550.543 228.323 545.33L228.419 545.286L228.513 545.235C234.713 541.858 243.903 539.109 251.694 541.032C255.488 541.968 258.994 544.016 261.796 547.763C264.631 551.553 266.878 557.263 267.76 565.713L267.776 565.866L267.807 566.016C269.401 573.624 277.491 589.786 297.274 596.715C297.655 596.882 298.042 597.05 298.435 597.221L298.463 597.233L298.464 597.234C304.84 600.008 312.679 603.419 319.56 608.577ZM113.816 549.262C112.528 549.367 111.392 549.393 110.503 549.368L110.471 549.367L110.439 549.366C105.064 549.101 101.944 549.4 100.314 549.875C100.287 549.883 100.261 549.891 100.236 549.899C100.532 550.241 100.936 550.637 101.453 551.073C102.297 551.785 103.322 552.507 104.402 553.181C107.224 553.012 109.949 552.026 113.816 549.262ZM545.212 417.537C550.954 420.867 555.093 425.744 557.09 429.123L557.188 429.289L557.214 429.323C560.611 434.73 563.35 438.68 566.029 441.517C563.776 441.177 561.413 440.637 559.047 439.964C553.538 438.398 548.432 436.229 545.463 434.735L545.359 434.682L545.251 434.638C502.931 417.313 454.434 425.203 427.827 438.993L368.867 467.892C368.62 467.343 368.433 466.509 368.433 465.255C368.433 462.954 369.12 460.186 370.15 457.942C373.804 449.978 380.167 445.319 387.247 442.383C393.947 439.606 401.071 438.455 406.91 437.512L407.539 437.411L407.974 437.34C425.895 435.777 436.076 424.06 439.043 418.02L439.111 417.882L439.165 417.738C441.65 411.019 444.662 406.869 447.713 404.41C450.721 401.985 453.936 401.068 457.16 401.095C463.818 401.15 470.701 405.265 475.056 409.314L475.134 409.387L475.217 409.453C483.628 416.231 493.64 418.493 502.552 418.651C511.379 418.808 519.367 416.911 524.176 415.041C532.46 412.52 539.572 414.268 545.212 417.537ZM575.868 441.176C576.833 440.864 577.758 440.508 578.542 440.129C578.738 440.034 578.918 439.941 579.081 439.851C577.745 439.214 575.409 438.454 571.61 437.68L571.578 437.673L571.547 437.666C571.19 437.586 570.791 437.484 570.357 437.36C572.37 439.51 574.048 440.569 575.868 441.176ZM191.478 206.058C185.894 209.18 180.883 214.437 179.066 223.15L179.023 223.353L178.954 223.547C176.37 230.777 165.549 242.816 142.998 240.847C139.943 241.151 135.722 242.172 132.585 244.139C130.999 245.134 129.838 246.277 129.165 247.542C128.523 248.749 128.221 250.256 128.647 252.257L128.666 252.348L128.68 252.44C129.525 258.109 132.345 266.714 137.975 273.833C143.524 280.851 151.741 286.375 163.654 286.402C227.327 284.284 291.675 286.318 338.575 315.72C340.169 316.609 342.201 317.383 343.964 317.594C329.911 305.06 298.141 282.57 256.853 266.595C248.674 265.035 230.641 263.617 215.038 268.879C196.903 274.994 179.997 269.854 173.572 266.376C172.115 265.587 171.573 263.766 172.362 262.309C173.15 260.852 174.971 260.31 176.428 261.099C181.747 263.979 196.915 268.658 213.121 263.193C220.533 260.694 228.375 259.584 235.59 259.268C228.091 257.001 220.358 255.001 212.43 253.346C210.808 253.008 209.768 251.419 210.106 249.797C210.445 248.175 212.034 247.134 213.656 247.473C227.744 250.413 241.225 254.42 253.888 259.066C254.153 255.373 254.048 250.241 253.012 244.846C251.724 238.142 249.054 231.315 244.164 226.275C243.01 225.086 243.039 223.187 244.228 222.033C245.417 220.88 247.316 220.908 248.47 222.097C254.461 228.272 257.489 236.347 258.904 243.715C260.194 250.427 260.191 256.788 259.732 261.085C260.118 261.215 260.463 261.419 260.755 261.677C272.605 266.343 283.668 271.524 293.757 276.841C294.373 273.016 294.883 267.984 294.86 262.67C294.828 255.444 293.806 248.045 291.006 242.463C290.263 240.982 290.861 239.179 292.342 238.436C293.823 237.693 295.626 238.291 296.369 239.772C299.777 246.564 300.826 255.046 300.86 262.643C300.889 269.284 300.142 275.516 299.323 279.841C321.676 292.16 338.689 304.827 348.094 313.237C348.965 308.361 349.227 300.166 347.107 291.501C344.961 282.725 340.421 273.647 331.792 266.955L331.237 266.525L330.931 265.893C324.962 253.587 313.707 235.405 299.446 220.97C285.117 206.467 268.4 196.38 251.346 198.608C242.714 200.479 221.932 203.801 207.217 202.044C203.283 201.961 197.096 202.918 191.478 206.058ZM358.396 235.379C356.581 188.441 377.642 160.467 387.929 152.49C410.776 138.407 430.506 138.253 444.405 143.771C458.567 149.392 466.549 160.738 466.733 169.772C467.256 195.486 486.239 205.517 494.772 207.367C494.792 207.371 494.811 207.375 494.83 207.379C511.736 210.698 519.154 217.992 522.072 225.132C525.073 232.476 523.65 240.456 521.324 245.568C521.116 246.026 521.026 246.529 521.063 247.03C521.441 252.186 518.916 256.101 515.165 259.07C511.358 262.083 506.557 263.868 503.346 264.554C502.748 264.681 502.204 264.988 501.786 265.434C498.158 269.296 492.589 270.881 486.603 271.069C480.663 271.256 474.827 270.044 471.344 268.887C471.121 268.813 470.89 268.765 470.656 268.745C453.894 267.301 431.974 270.831 411.605 275.703C393.299 280.082 375.984 285.61 364.326 289.839C374.888 283.291 388.368 273.656 402.323 263.149C413.028 265.587 440.8 268.185 477.455 261.592C479.086 261.299 480.17 259.739 479.877 258.108C479.584 256.478 478.024 255.394 476.393 255.687C445.438 261.255 421.191 260.085 408.796 258.24L409.123 257.99L409.555 257.66C419.565 250.004 429.664 242.052 438.997 234.569C442.124 235.383 446.252 236.178 450.443 236.445C455.552 236.77 461.513 236.367 465.655 233.472C467.013 232.523 467.345 230.652 466.396 229.294C465.447 227.936 463.577 227.605 462.218 228.554C459.858 230.203 455.71 230.768 450.824 230.457C448.832 230.33 446.844 230.067 444.997 229.739C453.613 222.774 461.349 216.398 467.447 211.291C468.717 210.227 468.885 208.335 467.821 207.064C466.757 205.794 464.865 205.627 463.595 206.691C457.413 211.868 449.538 218.358 440.769 225.442C440.915 221.811 441.236 217.548 441.822 213.342C442.775 206.497 444.353 200.429 446.592 197.241C447.545 195.885 447.217 194.014 445.861 193.061C444.505 192.109 442.634 192.437 441.682 193.793C438.533 198.277 436.834 205.662 435.879 212.514C434.956 219.148 434.659 225.874 434.669 230.349C425.529 237.671 415.676 245.425 405.91 252.894C405.465 253.234 405.021 253.573 404.577 253.912C404.23 245.278 404.543 233.377 406.395 220.725C408.71 204.898 413.392 188.177 421.96 175.213C422.873 173.83 422.493 171.969 421.111 171.056C419.729 170.142 417.868 170.522 416.954 171.904C407.7 185.907 402.835 203.61 400.458 219.857C398.241 235.005 398.153 249.132 398.81 258.283C394.472 261.549 390.201 264.716 386.066 267.72C384.716 262.243 383.317 254.557 382.739 246.197C382.019 235.77 382.597 224.576 385.924 215.366C386.487 213.808 385.68 212.089 384.122 211.526C382.563 210.963 380.844 211.77 380.281 213.328C376.549 223.658 376.007 235.802 376.754 246.61C377.441 256.551 379.236 265.599 380.844 271.479C369.989 279.215 360.36 285.561 353.352 289.281C352.277 287.328 351.845 284.611 351.884 282.45C351.892 282.012 351.804 281.577 351.627 281.177C348.78 274.768 349.043 266.198 350.829 257.691C352.596 249.274 355.743 241.437 358.072 236.855C358.304 236.399 358.416 235.891 358.396 235.379ZM251.237 372.814C254.32 370.141 256.979 367.04 258.965 364.315C243.993 362.573 227.594 362.83 209.884 365.953C209.839 369.145 209.367 372.969 208.066 376.409C206.265 381.17 202.569 385.794 195.826 385.98C194.17 386.026 192.79 384.72 192.744 383.064C192.699 381.408 194.004 380.028 195.66 379.982C199.03 379.889 201.125 377.802 202.454 374.287C203.783 370.771 204.037 366.439 203.819 363.449L203.809 363.43C203.763 363.331 203.597 362.981 203.099 362.392C202.447 361.622 201.408 360.662 199.921 359.639C196.956 357.601 192.369 355.427 185.99 354.044C184.371 353.693 183.343 352.095 183.694 350.476C184.045 348.857 185.642 347.829 187.261 348.18C194.316 349.709 199.643 352.167 203.32 354.695C205.153 355.955 206.616 357.261 207.679 358.517C208.078 358.988 208.464 359.504 208.796 360.053C226.809 356.871 243.525 356.553 258.831 358.254C256.928 351.196 250.294 340.578 233.224 337.933C231.587 337.68 230.465 336.147 230.718 334.51C230.972 332.872 232.505 331.751 234.142 332.004C255.703 335.344 263.576 350.01 265.15 359.081C280.462 361.389 294.269 365.703 306.444 371.108C306.331 368.617 306.005 365.499 305.327 362.237C304.307 357.327 302.547 352.371 299.754 348.719C298.748 347.403 298.999 345.521 300.315 344.514C301.631 343.508 303.514 343.759 304.52 345.075C308.085 349.736 310.093 355.68 311.202 361.017C312.251 366.068 312.546 370.828 312.485 373.942C331.646 383.421 346.314 395.448 355.927 405.922C335.262 341.008 289.429 320.693 268.6 318.627C268.256 318.593 267.92 318.499 267.607 318.35C247.721 308.882 225.937 312.194 206.425 320.58C186.924 328.961 170.144 342.232 160.714 351.856C160.306 352.273 159.785 352.561 159.215 352.686C152.039 354.264 149.439 356.947 148.305 359.116C147.693 360.289 147.391 361.531 147.203 362.829C147.117 363.419 147.06 363.984 147 364.578L146.978 364.788C146.926 365.296 146.867 365.866 146.776 366.42C146.86 368.799 146.008 371.008 144.924 372.869C143.767 374.858 142.195 376.706 140.651 378.309C139.174 379.843 137.627 381.249 136.364 382.396L136.176 382.567C135.994 382.733 135.822 382.89 135.66 383.038C136.322 383.366 137.156 383.679 138.194 383.956C140.678 384.618 143.835 384.944 147.318 385.005C154.266 385.126 161.959 384.188 166.904 383.28C167.589 383.154 168.298 383.271 168.907 383.61C202.908 402.575 225.058 398.844 231.15 395.477C231.179 395.461 231.208 395.445 231.237 395.43C231.253 395.422 231.268 395.414 231.284 395.407C255.302 383.673 270.451 387.921 275.74 393.111C305.266 416.13 339.399 418.331 356.768 416.212C343.501 398.919 311.867 372.62 265.61 365.232C263.318 368.797 259.668 373.446 255.167 377.347C250.112 381.729 243.519 385.565 236.284 385.163C234.629 385.071 233.363 383.655 233.455 382.001C233.547 380.346 234.963 379.08 236.617 379.172C241.545 379.446 246.633 376.804 251.237 372.814ZM328.208 484.091C328.208 484.089 328.221 484.094 328.247 484.11C328.222 484.1 328.209 484.092 328.208 484.091Z" fill="#C7B69F"/>
<path d="M10.7305 1104.02V1101.5L13.1305 1100.9C14.7305 1100.42 15.7705 1099.7 16.2505 1098.74C16.7305 1097.78 16.9705 1096.46 16.9705 1094.78C17.0505 1090.22 17.0905 1085.62 17.0905 1080.98C17.0905 1076.26 17.0905 1071.54 17.0905 1066.82V1061.9C17.0905 1057.26 17.0905 1052.62 17.0905 1047.98C17.0905 1043.34 17.0505 1038.7 16.9705 1034.06C16.9705 1032.38 16.6905 1031.1 16.1305 1030.22C15.6505 1029.26 14.6105 1028.5 13.0105 1027.94L10.7305 1027.22V1024.7H39.6505C51.3305 1024.7 59.8105 1026.9 65.0905 1031.3C70.4505 1035.62 73.1305 1041.34 73.1305 1048.46C73.1305 1052.94 72.0105 1057.1 69.7705 1060.94C67.6105 1064.7 64.0105 1067.7 58.9705 1069.94C53.9305 1072.18 47.1305 1073.3 38.5705 1073.3H34.2505C34.2505 1076.66 34.2505 1080.14 34.2505 1083.74C34.2505 1087.26 34.2905 1090.86 34.3705 1094.54C34.3705 1097.82 35.8505 1099.82 38.8105 1100.54L42.4105 1101.5V1104.02H10.7305ZM34.2505 1069.82H39.2905C43.2905 1069.82 46.5305 1069.22 49.0105 1068.02C51.5705 1066.74 53.4505 1064.58 54.6505 1061.54C55.9305 1058.5 56.5705 1054.3 56.5705 1048.94C56.5705 1043.58 55.8905 1039.42 54.5305 1036.46C53.2505 1033.42 51.2905 1031.3 48.6505 1030.1C46.0105 1028.82 42.7305 1028.18 38.8105 1028.18H34.3705C34.2905 1033.7 34.2505 1039.3 34.2505 1044.98C34.2505 1050.58 34.2505 1056.22 34.2505 1061.9V1069.82Z" fill="#C7B69F"/>
<path d="M105.984 1105.7C101.424 1105.7 97.5442 1104.42 94.3442 1101.86C91.2242 1099.22 89.6642 1095.46 89.6642 1090.58C89.6642 1086.74 91.5042 1083.22 95.1842 1080.02C98.9442 1076.74 104.824 1074.34 112.824 1072.82C114.184 1072.5 115.744 1072.22 117.504 1071.98C119.344 1071.66 121.144 1071.34 122.904 1071.02V1062.5C122.904 1057.06 122.224 1053.3 120.864 1051.22C119.504 1049.14 117.344 1048.1 114.384 1048.1H114.024C112.184 1048.1 110.704 1048.7 109.584 1049.9C108.544 1051.02 107.864 1052.9 107.544 1055.54L107.184 1057.1C106.944 1060.3 106.104 1062.66 104.664 1064.18C103.224 1065.62 101.424 1066.34 99.2642 1066.34C97.2642 1066.34 95.5842 1065.74 94.2242 1064.54C92.9442 1063.26 92.3042 1061.62 92.3042 1059.62C92.3042 1056.34 93.4242 1053.58 95.6642 1051.34C97.9042 1049.1 100.864 1047.42 104.544 1046.3C108.304 1045.18 112.344 1044.62 116.664 1044.62C123.784 1044.62 129.224 1046.34 132.984 1049.78C136.744 1053.22 138.624 1058.82 138.624 1066.58V1093.34C138.624 1096.78 140.264 1098.5 143.544 1098.5H146.304L147.504 1099.82C146.064 1101.66 144.464 1103.06 142.704 1104.02C140.944 1105.06 138.544 1105.58 135.504 1105.58C132.064 1105.58 129.304 1104.78 127.224 1103.18C125.224 1101.5 123.904 1099.3 123.264 1096.58C120.704 1099.3 118.184 1101.5 115.704 1103.18C113.224 1104.86 109.984 1105.7 105.984 1105.7ZM112.944 1098.02C114.544 1098.02 116.064 1097.66 117.504 1096.94C118.944 1096.22 120.744 1095.02 122.904 1093.34V1074.14C120.824 1074.46 118.704 1074.86 116.544 1075.34C113.104 1076.14 110.304 1077.62 108.144 1079.78C106.064 1081.94 105.024 1084.86 105.024 1088.54C105.024 1091.74 105.744 1094.14 107.184 1095.74C108.704 1097.26 110.624 1098.02 112.944 1098.02Z" fill="#C7B69F"/>
<path d="M161.873 1104.02V1101.74L163.793 1101.26C166.433 1100.46 167.753 1098.5 167.753 1095.38V1059.98C167.673 1058.3 167.393 1057.02 166.913 1056.14C166.433 1055.18 165.393 1054.54 163.793 1054.22L161.873 1053.74V1051.58L181.313 1044.62L182.753 1045.94L183.593 1053.38C186.473 1050.82 189.673 1048.74 193.193 1047.14C196.793 1045.46 200.313 1044.62 203.753 1044.62C209.033 1044.62 213.073 1046.06 215.873 1048.94C218.753 1051.82 220.193 1056.22 220.193 1062.14V1095.5C220.193 1098.62 221.633 1100.58 224.513 1101.38L225.833 1101.74V1104.02H198.233V1101.74L200.033 1101.26C202.673 1100.38 203.993 1098.42 203.993 1095.38V1059.74C203.993 1056.94 203.393 1054.9 202.193 1053.62C200.993 1052.34 198.993 1051.7 196.193 1051.7C192.273 1051.7 188.193 1053.42 183.953 1056.86V1095.5C183.953 1098.62 185.353 1100.58 188.153 1101.38L189.353 1101.74V1104.02H161.873Z" fill="#C7B69F"/>
<path d="M267.98 1105.7C263.26 1105.7 259.02 1104.66 255.26 1102.58C251.5 1100.42 248.54 1097.14 246.38 1092.74C244.3 1088.26 243.26 1082.58 243.26 1075.7C243.26 1068.82 244.46 1063.1 246.86 1058.54C249.26 1053.9 252.46 1050.42 256.46 1048.1C260.46 1045.78 264.86 1044.62 269.66 1044.62C272.54 1044.62 275.3 1044.98 277.94 1045.7C280.58 1046.34 282.9 1047.34 284.9 1048.7V1033.1C284.9 1031.42 284.62 1030.22 284.06 1029.5C283.58 1028.7 282.54 1028.1 280.94 1027.7L278.54 1027.22V1024.94L299.42 1019.78L300.98 1020.86L300.5 1037.78V1095.5C300.5 1097.02 300.78 1098.3 301.34 1099.34C301.9 1100.3 302.9 1100.98 304.34 1101.38L305.66 1101.74V1104.02L285.74 1105.34L284.66 1100.3C282.5 1101.98 280.02 1103.3 277.22 1104.26C274.42 1105.22 271.34 1105.7 267.98 1105.7ZM274.58 1100.18C278.02 1100.18 281.26 1099.06 284.3 1096.82V1052.18C281.34 1050.34 278.14 1049.42 274.7 1049.42C270.78 1049.42 267.42 1051.5 264.62 1055.66C261.82 1059.74 260.42 1066.34 260.42 1075.46C260.42 1084.58 261.74 1090.98 264.38 1094.66C267.02 1098.34 270.42 1100.18 274.58 1100.18Z" fill="#C7B69F"/>
<path d="M343.994 1105.7C340.874 1105.7 338.034 1105.14 335.474 1104.02C332.914 1102.82 330.874 1100.9 329.354 1098.26C327.914 1095.54 327.234 1091.98 327.314 1087.58L327.674 1057.46C327.674 1055.7 327.394 1054.42 326.834 1053.62C326.274 1052.82 325.274 1052.26 323.834 1051.94L322.394 1051.46V1049.3L342.914 1045.34L344.234 1046.66L343.634 1063.58V1090.82C343.634 1093.54 344.354 1095.54 345.794 1096.82C347.314 1098.02 349.194 1098.62 351.434 1098.62C353.754 1098.62 355.834 1098.3 357.674 1097.66C359.594 1096.94 361.554 1095.9 363.554 1094.54L363.914 1057.58C363.914 1055.74 363.634 1054.46 363.074 1053.74C362.594 1053.02 361.634 1052.46 360.194 1052.06L358.874 1051.7V1049.54L378.914 1045.34L380.234 1046.66L379.874 1063.58V1095.02C379.874 1096.7 380.074 1098.06 380.474 1099.1C380.954 1100.06 381.954 1100.78 383.474 1101.26L385.034 1101.74V1104.02L364.754 1105.22L363.674 1097.66C360.954 1099.98 357.994 1101.9 354.794 1103.42C351.594 1104.94 347.994 1105.7 343.994 1105.7Z" fill="#C7B69F"/>
<path d="M401.897 1104.02V1101.74L403.697 1101.14C405.297 1100.74 406.377 1100.06 406.937 1099.1C407.577 1098.14 407.897 1096.86 407.897 1095.26V1060.1C407.817 1058.34 407.497 1057.02 406.937 1056.14C406.377 1055.18 405.297 1054.54 403.697 1054.22L401.897 1053.74V1051.58L421.457 1044.62L422.897 1045.94L423.977 1056.5V1057.34C425.177 1055.1 426.697 1053.02 428.537 1051.1C430.377 1049.18 432.377 1047.62 434.537 1046.42C436.697 1045.22 438.857 1044.62 441.017 1044.62C444.057 1044.62 446.337 1045.42 447.857 1047.02C449.377 1048.62 450.137 1050.66 450.137 1053.14C450.137 1055.86 449.377 1057.94 447.857 1059.38C446.337 1060.74 444.497 1061.42 442.337 1061.42C439.137 1061.42 436.377 1059.98 434.057 1057.1L433.817 1056.86C433.017 1055.9 432.097 1055.38 431.057 1055.3C430.097 1055.14 429.137 1055.62 428.177 1056.74C427.377 1057.54 426.617 1058.5 425.897 1059.62C425.257 1060.66 424.657 1061.9 424.097 1063.34V1094.78C424.097 1096.3 424.417 1097.58 425.057 1098.62C425.697 1099.58 426.777 1100.26 428.297 1100.66L431.897 1101.74V1104.02H401.897Z" fill="#C7B69F"/>
<path d="M481.101 1105.7C476.541 1105.7 472.661 1104.42 469.461 1101.86C466.341 1099.22 464.781 1095.46 464.781 1090.58C464.781 1086.74 466.621 1083.22 470.301 1080.02C474.061 1076.74 479.941 1074.34 487.941 1072.82C489.301 1072.5 490.861 1072.22 492.621 1071.98C494.461 1071.66 496.261 1071.34 498.021 1071.02V1062.5C498.021 1057.06 497.341 1053.3 495.981 1051.22C494.621 1049.14 492.461 1048.1 489.501 1048.1H489.141C487.301 1048.1 485.821 1048.7 484.701 1049.9C483.661 1051.02 482.981 1052.9 482.661 1055.54L482.301 1057.1C482.061 1060.3 481.221 1062.66 479.781 1064.18C478.341 1065.62 476.541 1066.34 474.381 1066.34C472.381 1066.34 470.701 1065.74 469.341 1064.54C468.061 1063.26 467.421 1061.62 467.421 1059.62C467.421 1056.34 468.541 1053.58 470.781 1051.34C473.021 1049.1 475.981 1047.42 479.661 1046.3C483.421 1045.18 487.461 1044.62 491.781 1044.62C498.901 1044.62 504.341 1046.34 508.101 1049.78C511.861 1053.22 513.741 1058.82 513.741 1066.58V1093.34C513.741 1096.78 515.381 1098.5 518.661 1098.5H521.421L522.621 1099.82C521.181 1101.66 519.581 1103.06 517.821 1104.02C516.061 1105.06 513.661 1105.58 510.621 1105.58C507.181 1105.58 504.421 1104.78 502.341 1103.18C500.341 1101.5 499.021 1099.3 498.381 1096.58C495.821 1099.3 493.301 1101.5 490.821 1103.18C488.341 1104.86 485.101 1105.7 481.101 1105.7ZM488.061 1098.02C489.661 1098.02 491.181 1097.66 492.621 1096.94C494.061 1096.22 495.861 1095.02 498.021 1093.34V1074.14C495.941 1074.46 493.821 1074.86 491.661 1075.34C488.221 1076.14 485.421 1077.62 483.261 1079.78C481.181 1081.94 480.141 1084.86 480.141 1088.54C480.141 1091.74 480.861 1094.14 482.301 1095.74C483.821 1097.26 485.741 1098.02 488.061 1098.02Z" fill="#C7B69F"/>
<path d="M559.902 1105.7C554.942 1105.7 551.022 1104.5 548.142 1102.1C545.342 1099.62 543.942 1095.62 543.942 1090.1C543.942 1088.18 543.942 1086.38 543.942 1084.7C544.022 1082.94 544.062 1080.9 544.062 1078.58V1050.14H535.542V1047.5L538.782 1047.02C541.102 1046.62 543.062 1045.9 544.662 1044.86C546.342 1043.82 547.862 1042.38 549.222 1040.54L557.022 1029.74H560.622L560.262 1046.42H573.942V1050.14H560.142V1091.06C560.142 1093.94 560.742 1096.1 561.942 1097.54C563.222 1098.98 564.782 1099.7 566.622 1099.7C568.222 1099.7 569.662 1099.34 570.942 1098.62C572.222 1097.82 573.502 1096.78 574.782 1095.5L576.342 1097.3C574.822 1099.94 572.702 1102.02 569.982 1103.54C567.262 1104.98 563.902 1105.7 559.902 1105.7Z" fill="#C7B69F"/>
<path d="M609.75 1105.7C605.19 1105.7 601.31 1104.42 598.11 1101.86C594.99 1099.22 593.43 1095.46 593.43 1090.58C593.43 1086.74 595.27 1083.22 598.95 1080.02C602.71 1076.74 608.59 1074.34 616.59 1072.82C617.95 1072.5 619.51 1072.22 621.27 1071.98C623.11 1071.66 624.91 1071.34 626.67 1071.02V1062.5C626.67 1057.06 625.99 1053.3 624.63 1051.22C623.27 1049.14 621.11 1048.1 618.15 1048.1H617.79C615.95 1048.1 614.47 1048.7 613.35 1049.9C612.31 1051.02 611.63 1052.9 611.31 1055.54L610.95 1057.1C610.71 1060.3 609.87 1062.66 608.43 1064.18C606.99 1065.62 605.19 1066.34 603.03 1066.34C601.03 1066.34 599.35 1065.74 597.99 1064.54C596.71 1063.26 596.07 1061.62 596.07 1059.62C596.07 1056.34 597.19 1053.58 599.43 1051.34C601.67 1049.1 604.63 1047.42 608.31 1046.3C612.07 1045.18 616.11 1044.62 620.43 1044.62C627.55 1044.62 632.99 1046.34 636.75 1049.78C640.51 1053.22 642.39 1058.82 642.39 1066.58V1093.34C642.39 1096.78 644.03 1098.5 647.31 1098.5H650.07L651.27 1099.82C649.83 1101.66 648.23 1103.06 646.47 1104.02C644.71 1105.06 642.31 1105.58 639.27 1105.58C635.83 1105.58 633.07 1104.78 630.99 1103.18C628.99 1101.5 627.67 1099.3 627.03 1096.58C624.47 1099.3 621.95 1101.5 619.47 1103.18C616.99 1104.86 613.75 1105.7 609.75 1105.7ZM616.71 1098.02C618.31 1098.02 619.83 1097.66 621.27 1096.94C622.71 1096.22 624.51 1095.02 626.67 1093.34V1074.14C624.59 1074.46 622.47 1074.86 620.31 1075.34C616.87 1076.14 614.07 1077.62 611.91 1079.78C609.83 1081.94 608.79 1084.86 608.79 1088.54C608.79 1091.74 609.51 1094.14 610.95 1095.74C612.47 1097.26 614.39 1098.02 616.71 1098.02Z" fill="#C7B69F"/>
<circle cx="8.75293" cy="1166.96" r="5.5" fill="#C7B69F"/>
<path d="M58.9679 1179.4C54.5579 1179.4 51.0479 1177.87 48.3479 1174.72C45.6029 1171.66 44.2529 1167.57 44.2529 1162.48C44.2529 1157.44 45.6029 1153.44 48.3479 1150.38C51.0479 1147.32 54.5579 1145.79 58.9679 1145.79C62.5679 1145.79 65.6279 1146.78 68.1029 1148.71C70.4879 1150.69 71.8829 1153.3 72.3329 1156.63H67.0229C66.5729 1154.74 65.7179 1153.26 64.3679 1152.18C63.0179 1151.1 61.3079 1150.56 59.2379 1150.56C56.2679 1150.56 53.9279 1151.64 52.2629 1153.75C50.5529 1155.91 49.7429 1158.79 49.7429 1162.48C49.7429 1166.22 50.5529 1169.19 52.2629 1171.35C53.9729 1173.55 56.2679 1174.63 59.2379 1174.63C61.4879 1174.63 63.2879 1174 64.6829 1172.74C66.0329 1171.48 66.8879 1169.73 67.2479 1167.43H72.5129C72.1079 1171.21 70.7129 1174.14 68.3279 1176.25C65.8979 1178.37 62.7929 1179.4 58.9679 1179.4Z" fill="#C7B69F"/>
<path d="M104.774 1175.71C102.614 1178.05 99.8241 1179.18 96.4491 1179.18C93.0291 1179.18 90.2391 1178.05 88.1691 1175.76C86.0091 1173.46 84.9291 1170.54 84.9291 1166.94C84.9291 1163.34 86.0091 1160.37 88.1691 1158.07C90.3291 1155.82 93.1191 1154.7 96.5391 1154.7C99.9141 1154.7 102.659 1155.82 104.819 1158.07C106.934 1160.37 108.014 1163.29 108.014 1166.85C108.014 1170.49 106.934 1173.46 104.774 1175.71ZM96.4491 1174.95C98.4291 1174.95 99.9591 1174.23 101.129 1172.74C102.299 1171.3 102.884 1169.32 102.884 1166.85C102.884 1164.42 102.299 1162.48 101.174 1161.04C100.004 1159.65 98.4291 1158.93 96.4491 1158.93C94.4691 1158.93 92.8941 1159.65 91.7691 1161.09C90.6441 1162.53 90.1041 1164.51 90.1041 1166.94C90.1041 1169.37 90.6441 1171.35 91.8141 1172.79C92.9391 1174.23 94.4691 1174.95 96.4491 1174.95Z" fill="#C7B69F"/>
<path d="M133.608 1150.74H131.583C130.548 1150.74 129.828 1150.96 129.423 1151.41C128.973 1151.86 128.793 1152.54 128.793 1153.53V1155.42L133.608 1155.28V1159.24L128.793 1159.06V1178.5H123.528V1159.11L120.018 1159.24V1155.28L123.528 1155.42V1153.66C123.528 1148.89 125.913 1146.46 130.728 1146.46H133.608V1150.74Z" fill="#C7B69F"/>
<path d="M158.208 1150.74H156.183C155.148 1150.74 154.428 1150.96 154.023 1151.41C153.573 1151.86 153.393 1152.54 153.393 1153.53V1155.42L158.208 1155.28V1159.24L153.393 1159.06V1178.5H148.128V1159.11L144.618 1159.24V1155.28L148.128 1155.42V1153.66C148.128 1148.89 150.513 1146.46 155.328 1146.46H158.208V1150.74Z" fill="#C7B69F"/>
<path d="M192.129 1167.03V1168.33H174.984C175.074 1170.49 175.704 1172.11 176.784 1173.28C177.864 1174.45 179.349 1174.99 181.239 1174.99C183.894 1174.99 185.694 1173.73 186.639 1171.21L191.679 1171.66C190.959 1174.09 189.654 1175.98 187.854 1177.24C186.054 1178.55 183.849 1179.18 181.239 1179.18C177.639 1179.18 174.804 1178.05 172.734 1175.71C170.664 1173.46 169.629 1170.49 169.629 1166.8C169.629 1163.29 170.619 1160.37 172.644 1158.07C174.669 1155.82 177.414 1154.7 180.834 1154.7C184.209 1154.7 186.954 1155.82 189.024 1157.98C191.094 1160.23 192.129 1163.25 192.129 1167.03ZM185.019 1160.28C183.984 1159.29 182.634 1158.75 180.969 1158.75C179.259 1158.75 177.864 1159.29 176.874 1160.28C175.794 1161.36 175.164 1162.8 175.029 1164.69H186.864C186.594 1162.75 186.009 1161.27 185.019 1160.28Z" fill="#C7B69F"/>
<path d="M227.277 1167.03V1168.33H210.132C210.222 1170.49 210.852 1172.11 211.932 1173.28C213.012 1174.45 214.497 1174.99 216.387 1174.99C219.042 1174.99 220.842 1173.73 221.787 1171.21L226.827 1171.66C226.107 1174.09 224.802 1175.98 223.002 1177.24C221.202 1178.55 218.997 1179.18 216.387 1179.18C212.787 1179.18 209.952 1178.05 207.882 1175.71C205.812 1173.46 204.777 1170.49 204.777 1166.8C204.777 1163.29 205.767 1160.37 207.792 1158.07C209.817 1155.82 212.562 1154.7 215.982 1154.7C219.357 1154.7 222.102 1155.82 224.172 1157.98C226.242 1160.23 227.277 1163.25 227.277 1167.03ZM220.167 1160.28C219.132 1159.29 217.782 1158.75 216.117 1158.75C214.407 1158.75 213.012 1159.29 212.022 1160.28C210.942 1161.36 210.312 1162.8 210.177 1164.69H222.012C221.742 1162.75 221.157 1161.27 220.167 1160.28Z" fill="#C7B69F"/>
<path d="M285.724 1171.57L291.934 1178.55H285.364L282.484 1175.26C279.739 1177.87 276.499 1179.18 272.809 1179.18C269.569 1179.18 266.959 1178.37 264.934 1176.66C262.909 1175.04 261.919 1172.79 261.919 1169.95C261.919 1165.54 264.394 1162.35 269.389 1160.32C267.994 1158.88 267.004 1157.4 266.464 1155.87C265.924 1154.38 265.744 1153.03 266.014 1151.86C266.239 1150.69 266.734 1149.61 267.499 1148.67C268.219 1147.72 269.209 1147 270.469 1146.46C271.684 1145.97 273.034 1145.7 274.474 1145.7C276.994 1145.7 279.064 1146.42 280.729 1147.81C282.349 1149.21 283.159 1151.01 283.159 1153.21C283.159 1156.72 281.044 1159.51 276.814 1161.63L282.574 1168.06C283.294 1166.4 283.789 1164.6 284.014 1162.62H289.054C288.604 1165.99 287.479 1168.96 285.724 1171.57ZM277.174 1150.96C276.364 1150.42 275.464 1150.11 274.564 1150.06C273.619 1150.06 272.764 1150.33 272.044 1150.96C271.279 1151.59 270.919 1152.4 271.009 1153.35C271.009 1154.61 271.594 1155.87 272.809 1157.13L273.844 1158.3C275.374 1157.58 276.454 1156.86 277.174 1156.09C277.849 1155.37 278.209 1154.47 278.209 1153.48C278.209 1152.45 277.849 1151.59 277.174 1150.96ZM273.214 1174.72C275.644 1174.72 277.759 1173.82 279.559 1171.93L272.359 1163.65C268.894 1165.09 267.184 1167.12 267.184 1169.68C267.184 1171.21 267.724 1172.43 268.804 1173.33C269.884 1174.27 271.324 1174.72 273.214 1174.72Z" fill="#C7B69F"/>
<path d="M339.436 1179.4C335.026 1179.4 331.516 1177.87 328.816 1174.72C326.071 1171.66 324.721 1167.57 324.721 1162.48C324.721 1157.44 326.071 1153.44 328.816 1150.38C331.516 1147.32 335.026 1145.79 339.436 1145.79C343.036 1145.79 346.096 1146.78 348.571 1148.71C350.956 1150.69 352.351 1153.3 352.801 1156.63H347.491C347.041 1154.74 346.186 1153.26 344.836 1152.18C343.486 1151.1 341.776 1150.56 339.706 1150.56C336.736 1150.56 334.396 1151.64 332.731 1153.75C331.021 1155.91 330.211 1158.79 330.211 1162.48C330.211 1166.22 331.021 1169.19 332.731 1171.35C334.441 1173.55 336.736 1174.63 339.706 1174.63C341.956 1174.63 343.756 1174 345.151 1172.74C346.501 1171.48 347.356 1169.73 347.716 1167.43H352.981C352.576 1171.21 351.181 1174.14 348.796 1176.25C346.366 1178.37 343.261 1179.4 339.436 1179.4Z" fill="#C7B69F"/>
<path d="M385.242 1175.71C383.082 1178.05 380.292 1179.18 376.917 1179.18C373.497 1179.18 370.707 1178.05 368.637 1175.76C366.477 1173.46 365.397 1170.54 365.397 1166.94C365.397 1163.34 366.477 1160.37 368.637 1158.07C370.797 1155.82 373.587 1154.7 377.007 1154.7C380.382 1154.7 383.127 1155.82 385.287 1158.07C387.402 1160.37 388.482 1163.29 388.482 1166.85C388.482 1170.49 387.402 1173.46 385.242 1175.71ZM376.917 1174.95C378.897 1174.95 380.427 1174.23 381.597 1172.74C382.767 1171.3 383.352 1169.32 383.352 1166.85C383.352 1164.42 382.767 1162.48 381.642 1161.04C380.472 1159.65 378.897 1158.93 376.917 1158.93C374.937 1158.93 373.362 1159.65 372.237 1161.09C371.112 1162.53 370.572 1164.51 370.572 1166.94C370.572 1169.37 371.112 1171.35 372.282 1172.79C373.407 1174.23 374.937 1174.95 376.917 1174.95Z" fill="#C7B69F"/>
<path d="M423.901 1167.12L427.096 1155.28H432.586L425.341 1178.5H420.256L416.926 1165.14L416.071 1160.64L415.171 1165.14L411.751 1178.5H406.621L399.511 1155.28H405.091L408.196 1167.12L409.411 1172.97L410.581 1167.12L413.551 1155.28H418.636L421.561 1167.07L422.731 1172.92L423.901 1167.12Z" fill="#C7B69F"/>
<path d="M463.535 1175.71C461.375 1178.05 458.585 1179.18 455.21 1179.18C451.79 1179.18 449 1178.05 446.93 1175.76C444.77 1173.46 443.69 1170.54 443.69 1166.94C443.69 1163.34 444.77 1160.37 446.93 1158.07C449.09 1155.82 451.88 1154.7 455.3 1154.7C458.675 1154.7 461.42 1155.82 463.58 1158.07C465.695 1160.37 466.775 1163.29 466.775 1166.85C466.775 1170.49 465.695 1173.46 463.535 1175.71ZM455.21 1174.95C457.19 1174.95 458.72 1174.23 459.89 1172.74C461.06 1171.3 461.645 1169.32 461.645 1166.85C461.645 1164.42 461.06 1162.48 459.935 1161.04C458.765 1159.65 457.19 1158.93 455.21 1158.93C453.23 1158.93 451.655 1159.65 450.53 1161.09C449.405 1162.53 448.865 1164.51 448.865 1166.94C448.865 1169.37 449.405 1171.35 450.575 1172.79C451.7 1174.23 453.23 1174.95 455.21 1174.95Z" fill="#C7B69F"/>
<path d="M492.099 1154.56C492.594 1154.56 493.089 1154.61 493.584 1154.7V1159.69C492.684 1159.65 492.189 1159.6 492.189 1159.6C490.299 1159.6 488.814 1160.23 487.689 1161.45C486.564 1162.66 485.979 1164.37 485.979 1166.53V1178.5H480.714V1155.28H485.754L485.664 1159.51C486.879 1156.23 489.039 1154.56 492.099 1154.56Z" fill="#C7B69F"/>
<path d="M527.831 1178.5H521.621L514.601 1167.39L511.766 1170.13V1178.5H506.501V1146.46H511.766V1164.55L520.811 1155.28H527.426L518.246 1164.15L527.831 1178.5Z" fill="#C7B69F"/>
<path d="M546.342 1151.59H541.077V1146.46H546.342V1151.59ZM546.342 1178.5H541.077V1155.28H546.342V1178.5Z" fill="#C7B69F"/>
<path d="M573.964 1154.7C576.394 1154.7 578.284 1155.42 579.634 1156.81C580.984 1158.25 581.704 1160.19 581.704 1162.66V1178.5H576.439V1163.79C576.439 1160.86 575.089 1159.38 572.434 1159.38C570.769 1159.38 569.419 1159.96 568.429 1161.09C567.394 1162.21 566.899 1163.79 566.899 1165.86V1178.5H561.634V1155.28H566.674L566.764 1158.52C568.384 1156 570.769 1154.7 573.964 1154.7Z" fill="#C7B69F"/>
<path d="M612.887 1158.57L612.977 1155.28H617.747V1178.28C617.747 1181.56 616.757 1184.04 614.867 1185.7C612.932 1187.41 610.232 1188.22 606.767 1188.22C603.707 1188.22 601.277 1187.64 599.522 1186.38C597.767 1185.12 596.777 1183.32 596.507 1180.89H601.457C601.907 1183.14 603.662 1184.22 606.722 1184.22C608.747 1184.22 610.232 1183.77 611.132 1182.87C612.032 1181.97 612.527 1180.48 612.527 1178.5V1175.44C610.907 1177.65 608.612 1178.73 605.732 1178.73C602.717 1178.73 600.287 1177.6 598.487 1175.31C596.597 1173.06 595.697 1170.09 595.697 1166.49C595.697 1162.93 596.597 1160.1 598.487 1157.94C600.332 1155.82 602.717 1154.74 605.687 1154.74C608.927 1154.74 611.357 1156.05 612.887 1158.57ZM606.677 1174.23C608.387 1174.23 609.827 1173.55 610.952 1172.11C612.032 1170.72 612.617 1168.87 612.617 1166.53C612.617 1164.19 612.077 1162.35 610.997 1161.04C609.827 1159.74 608.387 1159.06 606.677 1159.06C604.877 1159.06 603.482 1159.74 602.447 1161.04C601.367 1162.39 600.872 1164.19 600.872 1166.49C600.872 1168.87 601.367 1170.76 602.447 1172.16C603.482 1173.55 604.877 1174.23 606.677 1174.23Z" fill="#C7B69F"/>
<circle cx="653.247" cy="1166.96" r="5.5" fill="#C7B69F"/>
</svg>
