<?xml version="1.0"?>
<svg width="1200" height="628" xmlns="http://www.w3.org/2000/svg" xmlns:svg="http://www.w3.org/2000/svg" version="1.1" xml:space="preserve">
 <desc>Created with Fabric.js 5.2.4</desc>

 <g class="layer">
  <title>Layer 1</title>
  <g id="svg_62" transform="matrix(0.700492 0 0 1 420 314)">
   <rect fill="rgb(255,255,255)" fill-rule="nonzero" height="628" id="svg_63" stroke-dashoffset="0" stroke-miterlimit="4" width="1200" x="-600" y="-314"/>
  </g>
  <g id="f5f8d30d-9010-498e-8807-2c3ab6a17ca4" transform="matrix(0 0 0 0 0 0)"/>
  <g id="svg_61">
   <g id="svg_2" transform="matrix(0.58 0 0 0.58 420.18 178.52)">
    <path d="m295.03,879.44l0,-317c0,-178.39 -144.61,-323 -323,-323c-178.39,0 -323,144.61 -323,323l0,317c0,178.38 144.61,323 323,323c178.39,0 323,-144.62 323,-323zm-323,-648c-182.81,0 -331,148.19 -331,331l0,317c0,182.8 148.19,331 331,331c182.81,0 331,-148.2 331,-331l0,-317c0,-182.81 -148.19,-331 -331,-331zm274,646l0,-313c0,-151.33 -122.67,-274 -274,-274c-151.33,0 -274,122.67 -274,274l0,313c0,34.51 6.38,67.53 18.02,97.94c26.61,-24.64 46.94,-30.77 63.4,-25.69c8.26,2.55 15.01,7.79 20.7,13.93c5.68,6.13 10.47,13.35 14.73,20.1c5.85,9.28 21.52,25.39 40.56,31.02c9.38,2.78 19.49,2.99 29.74,-1.3c10.3,-4.31 21.14,-13.33 31.62,-29.74c11.03,-17.28 22.49,-28.28 33.96,-34.35c6.6,-3.5 13.14,-5.32 19.47,-5.79c-0.12,-20.25 0.56,-41.13 2.34,-61.95l-0.04,0l-61.83,-52.72l-0.03,-0.02c-25.07,-22.39 -76.16,-44.71 -127.27,-37.65c-4.19,0.91 -11,1.94 -18.12,2.13c-7.11,0.19 -14.97,-0.43 -20.87,-3.17l-0.1,-0.04l-0.09,-0.05c-1.88,-1.04 -3.93,-2.36 -5.61,-3.77c-0.83,-0.71 -1.64,-1.49 -2.29,-2.33c-0.62,-0.81 -1.27,-1.89 -1.46,-3.16c-0.23,-1.43 0.16,-2.89 1.24,-4.04c0.95,-1.03 2.25,-1.63 3.57,-2.01c2.62,-0.77 6.56,-1.02 12.06,-0.75c1.47,0.04 4.08,-0.11 6.87,-0.71c2.77,-0.6 5.46,-1.58 7.42,-3.05c3.96,-3.92 10.98,-8.83 19.62,-11.27c8.83,-2.49 19.43,-2.4 30,4.07l0.1,0.06l0.09,0.06c4.27,3.09 12.11,7.24 21.4,9.45c9.25,2.19 19.71,2.39 29.54,-2.07c6.83,-3.69 17.57,-7.13 27.39,-4.7c5.04,1.24 9.78,4.02 13.47,8.96c3.64,4.87 6.14,11.66 7.11,20.76c1.33,6.06 8.28,20.12 25.65,26.16l0.1,0.04l0.11,0.04c0.23,0.1 0.45,0.2 0.68,0.3l0.69,0.3l0,0c6.31,2.74 14.75,6.41 22.22,12.01c4.68,3.51 9.05,7.82 12.33,13.21c2.24,-14.98 5.16,-29.74 8.88,-44c1.49,-5.99 3.05,-13.07 4.59,-21.02l-1.78,-1.34c-7.96,-6.01 -25.22,-16.9 -46.96,-26.32c-0.48,-0.08 -0.95,-0.27 -1.35,-0.58c-11.45,-4.89 -24.08,-9.33 -37.22,-12.43c-6.21,1.07 -16.09,1.69 -26.65,0.25c-10.92,-1.48 -22.87,-5.21 -32.22,-13.19l-0.02,-0.01l-0.01,-0.02c-1.64,-1.44 -9.3,-5.01 -22.81,-0.58l-0.19,0.07l-0.19,0.03c-16.57,3.11 -57.22,2.45 -88.58,-25.04l-0.12,-0.11l-0.11,-0.12c-2.53,-2.76 -5.36,-7.68 -6,-13.81c-0.65,-6.22 0.97,-13.49 7.04,-20.76c2.49,-3.63 6.96,-8.86 12.58,-13.08c5.63,-4.22 12.8,-7.74 20.49,-7.09c7.13,0.27 18.4,0.38 29.11,-0.15c5.37,-0.26 10.55,-0.68 14.98,-1.31c4.5,-0.64 7.94,-1.46 10.01,-2.42l0.1,-0.05l0.11,-0.04c2.92,-1.08 7.52,-2.51 11.87,-3.28c2.17,-0.38 4.4,-0.62 6.39,-0.53c1.87,0.09 4.15,0.5 5.78,2.02l0.24,0.22l0.18,0.27c1.68,2.46 4.29,6.32 6.66,9.93c2.11,3.24 4.18,6.49 5.11,8.28c7.95,8.54 20.66,21.4 33.28,32.57c6.38,5.66 12.7,10.85 18.34,14.82c5.74,4.04 10.45,6.59 13.67,7.32c0.84,0.18 1.65,0.35 2.45,0.5c0.14,0 0.27,-0.01 0.41,-0.02c0.53,-0.02 1.04,0.09 1.49,0.32c7.28,0.97 15.1,-0.28 37.99,-6.71c0.2,-0.07 0.4,-0.13 0.6,-0.16c1.24,-0.35 2.52,-0.72 3.85,-1.1l0.04,-0.01l0.04,-0.01c1.99,-0.51 3.77,0.49 4.99,1.57c1.3,1.15 2.57,2.92 3.82,5.33c2.44,4.72 5.1,12.53 7.55,24.98c3.24,3.21 7.13,8.1 9.74,13.75c2.7,-18.7 4.91,-39.94 5.93,-62.24c0.6,-13.05 0.78,-26.44 0.41,-39.87c-17.85,2.8 -55.61,1.32 -88.1,-24.09l-0.02,-0.02l-0.02,-0.02l-0.03,-0.02l-0.02,-0.02l-0.02,-0.01c-0.02,-0.02 -0.03,-0.03 -0.04,-0.04c-0.02,-0.02 -0.03,-0.03 -0.04,-0.04c-0.04,-0.03 -0.07,-0.06 -0.1,-0.1c-2.52,-2.57 -14.48,-7.98 -37.63,3.31c-8.58,4.68 -32.66,7.49 -67.06,-11.4c-5.2,0.89 -12.74,1.76 -19.71,1.63c-3.72,-0.06 -7.42,-0.41 -10.56,-1.25c-3.05,-0.81 -6.13,-2.23 -7.89,-4.87c-0.7,-1.05 -0.66,-2.43 0.09,-3.45c0.71,-0.96 2,-2.13 3.18,-3.2l0,0l0,0l0,0l0,0l0.26,-0.24l0,0l0,0l0,0l0,0c1.29,-1.17 2.71,-2.46 4.04,-3.84c1.39,-1.45 2.6,-2.9 3.41,-4.3c0.82,-1.41 1.1,-2.52 1.03,-3.36c-0.02,-0.28 -0.01,-0.56 0.05,-0.83c0.07,-0.36 0.12,-0.82 0.19,-1.48l0.02,-0.21c0.06,-0.58 0.13,-1.28 0.23,-2c0.24,-1.65 0.68,-3.63 1.73,-5.63c2.1,-4.04 6.27,-7.43 14.06,-9.31c9.96,-10.01 27.07,-23.4 47.01,-31.96c20.19,-8.68 43.73,-12.59 65.65,-2.36c22.32,2.46 66.31,22.67 88.77,82.28c-2.16,-24.77 -6.54,-49.03 -14.02,-70.92c-0.05,-0.14 -0.09,-0.29 -0.12,-0.43c-3.31,-0.14 -6.65,-1.53 -8.77,-2.73l-0.06,-0.03l-0.06,-0.04c-45.17,-28.35 -107.77,-30.57 -171.65,-28.44l-0.05,0l-0.05,0c-14.1,-0.01 -23.96,-6.66 -30.43,-14.84c-6.37,-8.06 -9.53,-17.65 -10.51,-24.15c-0.68,-3.27 -0.22,-6.19 1.11,-8.69c1.31,-2.46 3.35,-4.3 5.53,-5.66c4.3,-2.7 9.7,-3.89 13.33,-4.21l0.27,-0.03l0.27,0.03c19.86,1.83 28.19,-8.47 29.97,-13.15c2.26,-10.52 8.49,-17.07 15.31,-20.88c6.77,-3.79 14.14,-4.9 18.97,-4.77l0.14,0l0.14,0.02c13.74,1.68 33.93,-1.51 42.39,-3.35l0.12,-0.03l0.12,-0.01c19.99,-2.68 38.55,9.16 53.28,24.07c14.6,14.77 26.06,33.18 32.31,45.9c2.89,2.31 5.36,4.85 7.47,7.53c-0.06,-4.61 0.54,-9.31 1.47,-13.72c1.8,-8.59 4.93,-16.58 7.41,-21.62c-1.63,-48.52 20.23,-78.16 32.02,-87.2c0.04,-0.03 0.08,-0.06 0.12,-0.09c0.02,-0.01 0.03,-0.02 0.05,-0.03c0.01,-0.01 0.02,-0.02 0.04,-0.02c0.01,-0.01 0.03,-0.02 0.04,-0.03c24.29,-15.02 46.05,-15.6 61.98,-9.28c15.69,6.23 25.87,19.32 26.11,31.46c0.45,22.05 16.52,30.37 23.29,31.85c18.27,3.59 27.72,11.86 31.61,21.36c3.66,8.96 2.07,18.34 -0.54,24.5c0.26,7.36 -3.6,12.78 -8.2,16.41c-4.35,3.45 -9.57,5.5 -13.39,6.44c-5.15,5 -12.27,6.65 -18.71,6.86c-6.57,0.2 -12.93,-1.07 -16.99,-2.38c-15.72,-1.28 -36.7,2.04 -56.8,6.85c-20.17,4.82 -39.13,11.07 -50.39,15.33l-0.03,0.01l-0.03,0.02c-3.03,1.07 -5.78,1.26 -8.22,0.53l-0.06,-0.01c0.82,6.75 0.47,12.81 -0.29,16.98c-0.17,2.55 -0.9,4.72 -2.29,6.35c0.14,0.23 0.25,0.47 0.34,0.73c8.73,25.56 13.33,54.06 15.17,82.73c0.32,-0.4 0.64,-0.79 0.97,-1.19c6.41,-10.13 16.2,-25.71 21.46,-34.11c13.37,-22.27 35.13,-44.91 44.44,-53.55c5.72,-6.12 13.67,-8.37 20.92,-8.86c7.2,-0.48 14.11,0.74 18.42,2.06c17.18,3.18 27.34,2.83 33.44,1.61c3.03,-0.61 5.08,-1.45 6.5,-2.19c1.02,-0.54 1.58,-0.92 2.15,-1.32l0,0l0,0l0.01,0c0.33,-0.23 0.67,-0.46 1.1,-0.73c5.3,-3.3 10.48,-4.5 15.39,-4.07c4.87,0.43 9.23,2.43 12.96,5.13c7.14,5.16 12.38,13.14 15.17,19.12c1.18,0.75 2.14,1.62 2.83,2.41c0.02,0.02 0.03,0.04 0.05,0.06c0.04,0.05 0.08,0.1 0.11,0.14c4.35,6.01 6.09,10.72 5.97,14.4c-0.14,3.94 -2.43,6.42 -5,7.23c-0.51,0.15 -1.05,0.18 -1.57,0.06c-7.84,-1.78 -13.61,-0.2 -16.48,1.46c-12.27,12.02 -28.27,10.32 -34.87,7.94c-0.23,-0.09 -0.44,-0.2 -0.64,-0.33c-2.15,-1.43 -5.61,-1.91 -9.57,-1.63c-3.59,0.25 -7.1,1.09 -9.35,1.82c-5.18,3.86 -12.99,6.29 -20.32,7.83c-7.57,1.58 -15.12,2.3 -19.86,2.48c-15.35,1.95 -32.54,9.76 -47.95,18.96c-15.03,8.95 -28.09,19.05 -35.72,25.77c0.49,11.76 0.54,23.49 0.26,35c4.51,-6.3 10.65,-10.27 16.93,-12.87c7.38,-3.06 15.15,-4.31 20.92,-5.24l0.67,-0.1c0.19,-0.04 0.39,-0.07 0.58,-0.1l0.12,-0.02l0.11,-0.01c15.36,-1.3 23.92,-11.26 26.25,-15.87c2.73,-7.32 6.25,-12.46 10.35,-15.76c4.17,-3.36 8.76,-4.68 13.26,-4.64c8.75,0.07 16.97,5.23 21.85,9.75c7.05,5.64 15.59,7.66 23.6,7.8c8.05,0.15 15.31,-1.62 19.43,-3.24l0.11,-0.04l0.1,-0.03c10.21,-3.15 19.09,-0.96 25.92,3.01c6.66,3.86 11.45,9.42 13.93,13.54c1.24,1.53 3.18,2.87 5.3,3.92c2.13,1.07 4.2,1.73 5.39,2c4.59,0.94 7.84,1.98 9.91,3.2c1.04,0.61 2.06,1.44 2.68,2.58c0.71,1.31 0.73,2.73 0.19,3.99c-0.47,1.1 -1.29,1.9 -2,2.46c-0.75,0.59 -1.61,1.08 -2.47,1.49c-1.71,0.83 -3.7,1.49 -5.49,1.95l-0.1,0.03l-0.1,0.02c-5.54,1.03 -12.23,-0.14 -18.06,-1.79c-5.84,-1.67 -11.25,-3.95 -14.53,-5.59c-40.45,-16.52 -87.06,-8.91 -112.31,4.18l-0.03,0.02l-62.21,30.49l-1.32,-0.65c-0.03,-0.01 -0.06,-0.03 -0.09,-0.04c-2.71,41.56 -9.24,78.43 -14.78,100.79l-0.01,0.03l0,0.02c-2.19,8.4 -4.11,16.99 -5.76,25.71c2.05,-1.86 4.2,-3.04 6.04,-3.63c1.68,-0.56 2.79,-1.85 3.52,-3.58c0.75,-1.77 0.95,-3.72 0.9,-4.89c0,-0.04 0,-0.08 0,-0.12c0,-2.18 1.08,-4.09 2.01,-5.35c0.97,-1.34 2.12,-2.45 2.93,-3.1l0.03,-0.02l0.02,-0.02l0.03,-0.02c0.03,-0.02 0.06,-0.05 0.1,-0.07c9.03,-6.21 14.72,-16.86 16.41,-21.4c6.4,-20.08 20.28,-30.11 26.92,-32.72c0.19,-0.07 0.39,-0.12 0.58,-0.16c-0.02,0.01 -0.02,0.01 0.01,-0.01c0.11,-0.06 0.57,-0.3 1.41,-1.15c0.96,-0.97 2.09,-2.41 3.37,-4.29c2.55,-3.74 5.43,-8.88 8.37,-14.64c5.88,-11.49 11.81,-25.12 15.48,-34.16c0.02,-0.05 0.04,-0.1 0.06,-0.14c1.49,-3.19 4.25,-5.22 7.29,-6.49c3.03,-1.26 6.57,-1.87 10.09,-2.11c6.39,-0.42 13.25,0.36 18.12,1.3c4.82,-3.63 11.17,-4.55 16.6,-4.18c3,0.21 5.88,0.81 8.31,1.7c1.29,0.47 2.56,1.06 3.68,1.77c1.28,-0.83 2.75,-1.42 4.19,-1.85c2.51,-0.76 5.43,-1.18 8.34,-1.4c5.8,-0.43 12.03,-0.08 16.05,0.38c6.48,0.51 15.72,3.71 24.35,7.28c8.75,3.62 17.28,7.81 22.5,10.58c0.04,0.02 0.08,0.04 0.12,0.06l0.02,0.02l0.02,0.01l0.03,0.02c0.09,0.05 0.18,0.11 0.26,0.18c0.38,0.28 0.69,0.66 0.9,1.09c0,0.02 0.01,0.03 0.02,0.04c0.68,1.44 0.88,3.02 0.38,4.57c-0.48,1.5 -1.48,2.61 -2.53,3.43c-2.04,1.58 -5,2.62 -7.96,3.33c-5.99,1.47 -13.59,2.01 -18.78,2.08c-10.7,1.04 -25.6,7.11 -42.98,16.67c-17.34,9.53 -36.79,22.33 -56.42,36.41c-39.27,28.14 -79.03,61.25 -103.65,83.13c-0.49,0.44 -1.1,0.69 -1.72,0.75c-0.24,1.9 -0.47,3.8 -0.69,5.71c0.01,2.1 -0.2,4.23 -0.67,6.2c-2.44,23.76 -3.36,47.81 -3.22,71.1c1.98,0.2 3.92,0.53 5.84,0.97c20.57,4.73 37,22.45 45.41,38.31c6.46,11.7 18.38,25.13 33.05,28.97c7.19,1.89 15.2,1.52 23.92,-2.69c8.8,-4.24 18.5,-12.5 28.7,-26.71c10.77,-14.99 22.07,-24.3 33.43,-29.22c11.41,-4.93 22.61,-5.31 32.94,-2.91c18.89,4.39 34.77,18.05 44.46,30.13c12.93,-31.82 20.05,-66.62 20.05,-103.08zm-23.61,111.44c-0.23,-0.19 -0.43,-0.41 -0.61,-0.66c-8.75,-11.89 -24.22,-25.88 -42.1,-30.04c-8.83,-2.05 -18.27,-1.72 -27.95,2.47c-9.73,4.2 -19.96,12.4 -30.11,26.53c-10.71,14.91 -21.36,24.25 -31.72,29.26c-10.45,5.04 -20.42,5.59 -29.43,3.22c-17.74,-4.65 -31.11,-20.32 -38.04,-32.88c-0.01,-0.02 -0.02,-0.04 -0.03,-0.06c-7.81,-14.72 -22.68,-30.27 -40.15,-34.28c-8.6,-1.98 -17.97,-1.21 -27.78,3.98c-9.89,5.23 -20.41,15.07 -30.96,31.58c-11.1,17.38 -23.08,27.72 -35.27,32.82c-12.23,5.12 -24.26,4.8 -35.1,1.59c-21.41,-6.33 -38.49,-24.01 -45.06,-34.43c-4.23,-6.7 -8.69,-13.38 -13.83,-18.92c-5.12,-5.53 -10.74,-9.73 -17.19,-11.72c-12.57,-3.89 -30.47,0.09 -57.31,25.51c-0.17,0.17 -0.36,0.31 -0.55,0.44c1.59,3.81 3.27,7.57 5.03,11.29c20.73,-13.14 37.18,-13.83 50.65,-7.15c13.74,6.82 23.38,20.91 31.17,33.21c6.19,9.77 22.76,26.73 42.92,32.67c9.94,2.93 20.66,3.16 31.54,-1.38c10.92,-4.54 22.38,-14.05 33.46,-31.31c11.63,-18.13 23.7,-29.65 35.75,-36c12.13,-6.39 24.03,-7.43 34.98,-4.93c21.61,4.95 38.91,23.5 47.78,40.13c6.82,12.31 19.44,26.47 35,30.53c7.64,2 16.16,1.61 25.4,-2.84c9.33,-4.48 19.59,-13.18 30.37,-28.12c16.91,-23.44 35.01,-33.54 52.5,-34.98c15.99,-1.31 30.73,4.68 42.69,12.94c1.36,-2.8 2.68,-5.62 3.95,-8.47zm-451.07,5.72c-10.38,-5.15 -24.07,-5.38 -43.54,7.2c5.45,10.68 11.58,20.95 18.33,30.76c16.34,-5.99 29.45,-3.25 40.14,4.02c10.9,7.41 19.03,19.36 25.8,30.06c6.19,9.77 22.76,26.73 42.92,32.67c9.94,2.93 20.66,3.16 31.54,-1.38c10.92,-4.54 22.38,-14.05 33.46,-31.31c11.63,-18.13 23.7,-29.65 35.75,-36c12.13,-6.39 24.03,-7.43 34.98,-4.93c21.61,4.95 38.91,23.5 47.78,40.13c6.82,12.31 19.44,26.47 35,30.53c7.64,2 16.16,1.61 25.4,-2.84c9.33,-4.48 19.59,-13.18 30.37,-28.12c11.7,-16.21 23.97,-26.07 36.28,-31.07c11.43,-4.65 22.64,-5.01 33.01,-2.7c5.91,-8.68 11.34,-17.71 16.25,-27.06c-11.17,-7.93 -24.45,-13.32 -38.39,-12.17c-14.56,1.19 -30.72,9.6 -46.66,31.68c-11.29,15.64 -22.5,25.42 -33.39,30.65c-10.97,5.28 -21.43,5.84 -30.89,3.37c-18.63,-4.85 -32.7,-21.25 -40,-34.42l-0.02,-0.04l-0.01,-0.02c-8.25,-15.49 -23.99,-31.88 -42.51,-36.12c-9.13,-2.08 -19.07,-1.27 -29.47,4.21c-10.47,5.51 -21.61,15.88 -32.75,33.24c-11.69,18.22 -24.31,29.04 -37.11,34.38c-12.85,5.35 -25.49,5.02 -36.88,1.67c-22.52,-6.64 -40.51,-25.16 -47.42,-36.07c-7.92,-12.51 -16.5,-24.64 -27.97,-30.32zm422.15,44.2c-7.98,-1.23 -16.36,-0.55 -24.92,2.93c-10.59,4.31 -21.75,13.02 -32.81,28.34c-11.29,15.64 -22.5,25.42 -33.39,30.65c-10.97,5.28 -21.43,5.84 -30.89,3.37c-18.63,-4.85 -32.7,-21.25 -40,-34.42c-0.01,-0.02 -0.02,-0.04 -0.03,-0.06c-8.25,-15.49 -23.99,-31.88 -42.51,-36.12c-9.13,-2.08 -19.07,-1.27 -29.47,4.21c-10.47,5.51 -21.61,15.88 -32.75,33.24c-11.69,18.22 -24.31,29.04 -37.11,34.38c-12.85,5.35 -25.49,5.02 -36.88,1.67c-22.52,-6.64 -40.51,-25.16 -47.42,-36.07c-6.82,-10.78 -14.18,-21.36 -23.54,-27.73c-8.11,-5.5 -17.91,-7.98 -30.81,-3.84c35.57,48.49 86.71,84.84 146.06,101.7c7.63,-5.45 15.39,-13.63 22.97,-25.43c11.63,-18.13 23.7,-29.65 35.75,-36c12.13,-6.39 24.03,-7.43 34.98,-4.93c21.61,4.95 38.91,23.5 47.78,40.13c2.11,3.8 5.42,8.9 9.56,13.25c4.17,4.38 8.79,7.58 13.5,8.4c53.38,-18.44 99.27,-52.92 131.93,-97.67zm-262.39,109.6c-8.25,-1.23 -16.39,-2.84 -24.39,-4.79c6.87,-5.87 13.58,-13.65 20.01,-23.67c11.14,-17.36 22.28,-27.73 32.75,-33.24c10.4,-5.48 20.34,-6.29 29.47,-4.21c18.52,4.24 34.26,20.63 42.51,36.12l0.02,0.04l0.01,0.02c2.32,4.17 6.02,9.91 10.78,14.91c2.27,2.39 4.87,4.7 7.77,6.59c-7.6,2.26 -15.34,4.19 -23.2,5.78c-10.55,-12.1 -25.29,-22.59 -42.35,-24.28c-17.14,-1.69 -35.59,5.58 -53.38,26.73zm9.56,1.26c10.29,1.17 20.75,1.78 31.36,1.78c15.5,0 30.71,-1.29 45.51,-3.77c-9.33,-9.52 -21.07,-16.77 -33.84,-18.04c-12.9,-1.27 -27.71,3.5 -43.03,20.03zm31.36,-867.22c-155.74,0 -282,126.25 -282,282l0,313c0,155.74 126.26,282 282,282c155.74,0 282,-126.26 282,-282l0,-313c0,-155.75 -126.26,-282 -282,-282zm55.95,333.27c-0.26,0.21 -0.51,0.43 -0.77,0.64c3.27,-5.2 6.32,-10.06 8.55,-13.61c0.01,-0.02 0.02,-0.04 0.03,-0.05c12.99,-21.66 34.4,-43.94 43.47,-52.35l0.01,-0.01l0.02,-0.02l0.03,-0.02c0.02,-0.02 0.04,-0.05 0.06,-0.07l0.02,-0.02l0.02,-0.02c4.28,-4.62 10.53,-6.6 17,-7.03c6.45,-0.44 12.71,0.7 16.41,1.86c0.05,0.01 0.1,0.03 0.15,0.04c0.07,0.02 0.13,0.03 0.19,0.04c17.72,3.29 28.76,3.06 35.89,1.62c3.59,-0.72 6.17,-1.74 8.1,-2.75c1.34,-0.7 2.61,-1.57 3.25,-2.01c0.12,-0.08 0.22,-0.14 0.29,-0.19c0.03,-0.03 0.06,-0.04 0.08,-0.06l0.03,-0.01c4.3,-2.69 8.21,-3.5 11.69,-3.19c3.53,0.31 6.88,1.77 9.98,4.01c4.49,3.25 8.24,7.98 10.9,12.4c-2.51,0.32 -5.11,1.52 -7.58,3.91c-0.7,0.45 -2.13,0.98 -4.02,0.69c-1.96,-0.29 -4.7,-1.52 -7.73,-5.25c-0.03,-0.04 -0.06,-0.09 -0.1,-0.12c-2.34,-2.6 -7.97,-4.99 -14.96,-1.32c-4.68,-1.75 -11.56,-2.94 -18.78,-1.49c-8.15,1.62 -16.57,6.56 -22.61,17.35c-0.06,0.11 -0.12,0.23 -0.17,0.35c-1.13,2.82 -3.9,7 -8.42,9.88c-4.42,2.82 -10.65,4.52 -19.03,2.33c-3.17,-0.83 -8.34,-2.04 -14.01,-1.72c2.59,-2.34 5.58,-4.84 8.83,-7.3c2.04,1.1 5.24,2.19 8.8,2.22c3.8,0.02 8.09,-1.18 11.62,-4.95c1.13,-1.21 1.07,-3.11 -0.14,-4.24c-1.21,-1.14 -3.11,-1.07 -4.24,0.14c-2.18,2.32 -4.75,3.06 -7.2,3.05c-1.06,-0.01 -2.09,-0.16 -3.01,-0.39c7.33,-4.94 15.17,-9.05 22.09,-10.69c1.62,-0.39 2.61,-2.01 2.23,-3.62c-0.38,-1.61 -2,-2.6 -3.61,-2.22c-9.27,2.21 -19.42,8.07 -27.99,14.31c-8.17,5.94 -15.24,12.46 -19.08,17.03c-4.33,2.49 -8.28,6.57 -11.2,12.94c-1.98,1.67 -4.98,4 -8.63,6.82l0,0l0,0l-0.01,0.01c-0.44,0.34 -0.88,0.68 -1.34,1.04c-4.55,3.52 -9.87,7.67 -15.11,12.04zm40.13,-28.11c-0.38,0.37 -0.84,0.61 -1.32,0.74c-3.22,1.99 -6.21,5.25 -8.51,10.51c-0.18,0.4 -0.45,0.77 -0.79,1.06c-2.08,1.81 -5.43,4.4 -9.34,7.43c-0.46,0.35 -0.92,0.71 -1.38,1.07c-4.55,3.52 -9.79,7.61 -14.95,11.91c-0.29,0.25 -0.59,0.49 -0.88,0.74c3.35,-2.23 6.87,-4.46 10.49,-6.62c15.71,-9.36 33.8,-17.7 50.42,-19.77c0.03,-0.01 0.06,-0.01 0.1,-0.01c0.02,-0.01 0.04,-0.01 0.07,-0.01c0.03,0 0.06,0 0.09,0c4.44,-0.17 11.72,-0.85 18.98,-2.37c7.39,-1.54 14.26,-3.85 18.28,-7c0.26,-0.2 0.56,-0.37 0.87,-0.47c2.63,-0.91 6.89,-1.97 11.33,-2.28c4.21,-0.3 9.17,0.03 12.97,2.4c5.54,1.87 18.65,2.99 28.56,-6.91c0.16,-0.16 0.34,-0.31 0.54,-0.43c4.06,-2.51 11.14,-4.37 20.09,-2.62c0.18,-0.24 0.37,-0.66 0.39,-1.39c0.06,-1.7 -0.76,-5.03 -4.74,-10.56c-0.77,-0.84 -2.15,-1.83 -3.74,-2.11c-1.44,-0.25 -3.43,-0.01 -5.8,2.35c-0.11,0.11 -0.22,0.21 -0.35,0.3c-1.87,1.37 -4.96,2.44 -8.61,1.89c-3.69,-0.56 -7.67,-2.73 -11.43,-7.34c-0.6,-0.62 -3.57,-2.59 -8.64,0.58c-0.84,0.52 -1.89,0.6 -2.8,0.2c-3.69,-1.63 -10.02,-3 -16.63,-1.68c-6.43,1.28 -13.3,5.14 -18.45,14.24c-1.58,3.82 -5.08,8.94 -10.7,12.52c-5.81,3.71 -13.75,5.69 -23.77,3.08c-3.78,-0.99 -9.54,-2.25 -15.25,-1.16c-1.7,0.33 -3.42,0.86 -5.1,1.71zm136.83,128.2c2.41,-0.59 4.18,-1.27 5.26,-1.94c-21.69,-4.59 -35.8,-6.52 -45.41,-6.24c-9.77,0.29 -14.42,2.84 -17.72,6.9c-3.18,4.36 -12.35,15.42 -17.68,21.51l-0.06,0.08l-0.07,0.07c-10.79,10.79 -26.77,17.29 -42.02,21.1c-15.18,3.78 -30.04,5 -39.25,4.96c-5.33,2.33 -17.28,11.06 -22.91,28.81c-0.02,0.04 -0.03,0.09 -0.05,0.13c-1.89,5.15 -8.16,17.06 -18.56,24.25c-0.46,0.39 -1.18,1.08 -1.76,1.88c-0.64,0.89 -0.84,1.51 -0.86,1.79c0.07,1.89 -0.24,4.7 -1.37,7.39c-1.17,2.76 -3.35,5.67 -7.16,6.94l-0.02,0l-0.03,0.01c-2.88,0.91 -9.62,5.64 -10.03,17.84c24.91,-21.88 62.38,-52.81 99.44,-79.38c19.73,-14.15 39.4,-27.1 57.03,-36.79c17.53,-9.64 33.4,-16.26 45.43,-17.39c0.08,-0.01 0.16,-0.01 0.24,-0.02c4.98,-0.06 12.15,-0.59 17.56,-1.9zm-40.32,-14.18c6.67,-0.19 15.16,0.6 26.15,2.41c-0.15,-0.06 -0.31,-0.13 -0.47,-0.19c-8.68,-3.6 -17.15,-6.43 -22.57,-6.85l-0.04,-0.01l-0.02,0c-0.02,0 -0.04,0 -0.05,0c-3.75,-0.43 -9.62,-0.76 -14.97,-0.36c-2.69,0.2 -5.13,0.57 -7.06,1.16c-2.03,0.6 -3.06,1.31 -3.48,1.86c-0.55,0.72 -1.4,1.15 -2.31,1.17c-0.91,0.02 -1.78,-0.37 -2.37,-1.06c-0.42,-0.51 -1.55,-1.29 -3.49,-2c-1.87,-0.68 -4.19,-1.18 -6.67,-1.35c-5.07,-0.35 -10.15,0.72 -13.38,3.64c-0.72,0.65 -1.7,0.91 -2.65,0.7c-4.52,-0.97 -11.56,-1.88 -17.88,-1.46c-3.16,0.21 -5.98,0.74 -8.18,1.66c-2.15,0.9 -3.47,2.05 -4.13,3.42c-3.71,9.14 -9.7,22.9 -15.66,34.56c-2.99,5.84 -6,11.24 -8.76,15.28c-0.43,0.64 -0.86,1.25 -1.3,1.84c6.02,-0.34 13.28,-1.12 20.96,-2.53c0.26,-3.68 1.07,-9.35 2.7,-15.37c1.71,-6.36 4.39,-13.35 8.5,-18.81c0.99,-1.32 2.88,-1.59 4.2,-0.59c1.33,0.99 1.59,2.87 0.6,4.2c-3.46,4.59 -5.89,10.75 -7.51,16.76c-0.85,3.15 -1.46,6.2 -1.87,8.85c4.53,-3.04 10.31,-7.51 16.09,-12.77c8.31,-7.55 16.3,-16.44 20.55,-24.72c0.76,-1.47 2.57,-2.05 4.04,-1.29c1.48,0.76 2.06,2.57 1.3,4.04c-4.75,9.22 -13.36,18.69 -21.85,26.41c-4.02,3.65 -8.08,6.97 -11.79,9.75c12.89,-3.78 25.23,-9.53 33.7,-17.96c5.33,-6.11 14.35,-17.02 17.31,-21.08l0.04,-0.06l0.05,-0.06c4.71,-5.83 11.24,-8.86 22.27,-9.19zm-218.84,48.78c7.38,3.27 14.22,6.69 20.35,10.02c0.25,-0.3 0.52,-0.71 0.78,-1.26c0.62,-1.27 1.1,-3.08 1.15,-5.34c0.11,-4.49 -1.43,-10.57 -6.36,-17.13c-1,-1.33 -0.73,-3.21 0.59,-4.2c1.32,-1 3.21,-0.73 4.2,0.59c5.66,7.52 7.72,14.9 7.57,20.89c-0.07,2.98 -0.7,5.65 -1.75,7.82c-0.26,0.54 -0.56,1.07 -0.9,1.57c7.47,4.26 13.61,8.24 17.99,11.36c2.97,-4.75 2.73,-10.05 0.82,-15.27c-2.25,-6.13 -6.68,-11.71 -10.09,-14.93l-0.7,-0.66l-0.19,-0.95c-2.46,-12.75 -5.05,-20.19 -7.17,-24.29c-1.07,-2.07 -1.94,-3.13 -2.48,-3.61c-0.03,-0.03 -0.06,-0.05 -0.08,-0.07c-0.93,0.26 -1.83,0.52 -2.71,0.77c-4.08,4.31 -10.82,7.35 -17.19,9.47c-6.46,2.15 -13.1,3.52 -17.59,4.24c-3.83,3.06 -9.12,5.67 -14.13,7.69c-1.38,0.56 -2.75,1.08 -4.1,1.56c9.17,2.64 18,5.83 26.26,9.27c0.09,-2.07 -0.73,-5.7 -5.36,-10.95c-1.09,-1.24 -0.97,-3.13 0.27,-4.23c1.24,-1.1 3.14,-0.98 4.23,0.27c6.22,7.04 7.6,13.2 6.59,17.37zm-12.73,-27.24c-3.4,0.2 -6.29,0 -9.27,-0.49c-0.65,0.02 -1.32,0.04 -2.02,0.05l-0.01,0l-0.01,0l0,0c-5.97,0.15 -13.75,0.34 -21.79,3.94l-0.09,0.04l-0.09,0.03c-5.12,1.9 -13.09,2.31 -25.21,0.24c-12.18,-2.08 -28.9,-6.72 -51.74,-15.28c-12.74,-3.85 -45.19,-10.51 -80.3,-7.49c28.33,20.64 62.36,21.1 76.77,18.45c14.77,-4.79 24.76,-1.39 28.43,1.82c8.15,6.96 18.84,10.4 29.12,11.8c10.11,1.37 19.53,0.73 25.12,-0.28c0.14,-0.06 0.29,-0.1 0.45,-0.14c3.13,-0.74 8.16,-2.25 13.24,-4.3c5.13,-2.07 10.03,-4.59 13.15,-7.25l0.65,-0.55l0.85,-0.13c0.83,-0.13 1.75,-0.28 2.75,-0.46zm-108.39,-17.18c-6.02,-1.83 -16.21,-4.25 -28.94,-6.05c-2,-3.49 -3.97,-7.36 -3.83,-12.92c0,-0.11 0.01,-0.21 0.01,-0.32l0.01,-0.16c0,-0.11 0,-0.22 0.01,-0.34l0.01,-0.18c0.13,-3.4 0.32,-8.05 -4.22,-11.76c-1.29,-1.04 -3.18,-0.85 -4.22,0.43c-1.05,1.29 -0.86,3.18 0.43,4.22c2.15,1.75 2.1,3.4 2,7.08l0,0.01l-0.02,0.41c0,0.15 0,0.3 -0.01,0.46c-0.12,4.99 1.1,8.96 2.58,12.16c-15.44,-1.74 -33.75,-2.38 -52.57,-0.18c-1.7,-1.99 -3.69,-5.58 -4.15,-10.03c-0.48,-4.6 0.64,-10.31 5.76,-16.39l0.1,-0.12l0.09,-0.13c2.15,-3.18 6.23,-7.97 11.3,-11.78c5.12,-3.85 10.85,-6.4 16.44,-5.9l0.08,0l0.08,0.01c7.25,0.27 18.74,0.38 29.69,-0.15c5.47,-0.27 10.86,-0.7 15.53,-1.37c4.54,-0.64 8.68,-1.54 11.58,-2.86c2.69,-1 6.87,-2.28 10.71,-2.96c1.95,-0.35 3.7,-0.51 5.07,-0.44c0.67,0.03 1.18,0.11 1.53,0.22c0.05,0.01 0.09,0.03 0.13,0.04c0.06,0.02 0.12,0.05 0.16,0.07c1.67,2.43 4.09,6.03 6.3,9.4c2.39,3.66 4.36,6.8 4.94,8.01l0.19,0.41l0.31,0.34c8.03,8.64 21.03,21.82 33.99,33.3c6.47,5.73 12.98,11.08 18.87,15.23c1.96,1.38 3.89,2.66 5.77,3.78c-4.01,0.6 -8.37,1.67 -12.77,3.62c-3.66,1.33 -10.35,1.91 -22.03,-0.09c-0.97,-0.16 -1.97,-0.34 -3,-0.54c-1.35,-7.77 -7.09,-23.39 -21.57,-36.94c-0.89,-0.9 -2.27,-2.65 -3.27,-4.8c-1.03,-2.18 -1.54,-4.48 -1.13,-6.61c0.32,-1.63 -0.74,-3.2 -2.37,-3.52c-1.62,-0.32 -3.2,0.74 -3.52,2.37c-0.74,3.82 0.25,7.47 1.58,10.31c1.34,2.85 3.16,5.18 4.5,6.52l0.03,0.04l0.04,0.03c12.07,11.28 17.45,23.99 19.28,31.21c-8.2,-1.93 -18.13,-4.84 -30.11,-9.03c-0.69,-6.63 -5.74,-22.13 -20.38,-35.28c-0.81,-0.8 -2.07,-2.35 -2.98,-4.27c-0.92,-1.94 -1.36,-3.97 -0.94,-5.85c0.35,-1.62 -0.67,-3.22 -2.29,-3.57c-1.62,-0.35 -3.22,0.67 -3.57,2.29c-0.8,3.62 0.12,7.06 1.38,9.7c1.26,2.66 2.99,4.81 4.28,6.05l0.03,0.04l0.04,0.03c11.49,10.3 16.38,22.05 17.93,28.54c-1.53,-0.55 -3.09,-1.13 -4.69,-1.73l-0.09,-0.04l-0.09,-0.02zm135.93,133.26c6.46,4.84 11.92,11.12 14.37,19.67c-0.65,5.12 -1.22,10.26 -1.73,15.41l-58.59,-49.95c-26.21,-23.39 -79.06,-46.46 -132.18,-39.07l-0.12,0.01l-0.11,0.03c-3.85,0.84 -10.34,1.83 -17.12,2.01c-3.46,0.1 -6.89,-0.03 -10.03,-0.45c4.18,-2.37 8.77,-6.28 14.87,-12.08l0.03,-0.03l0.14,-0.13c3.31,-3.33 9.53,-7.74 17.15,-9.88c7.5,-2.12 16.28,-2.04 25.15,3.35c4.88,3.5 13.38,7.96 23.43,10.35c10.13,2.39 22.08,2.72 33.5,-2.49l0.1,-0.04l0.09,-0.05c6.2,-3.38 15.39,-6.13 23.18,-4.21c3.8,0.94 7.3,2.99 10.11,6.73c2.83,3.79 5.08,9.5 5.96,17.95l0.02,0.16l0.03,0.15c1.59,7.6 9.68,23.77 29.46,30.7c0.38,0.16 0.77,0.33 1.17,0.5l0.02,0.01l0,0c6.38,2.78 14.22,6.19 21.1,11.35zm-205.74,-59.32c-1.29,0.11 -2.43,0.13 -3.32,0.11l-0.03,0l-0.03,0c-5.38,-0.27 -8.5,0.03 -10.13,0.51c-0.02,0 -0.05,0.01 -0.07,0.02c0.29,0.34 0.7,0.74 1.21,1.17c0.85,0.71 1.87,1.44 2.95,2.11c2.82,-0.17 5.55,-1.15 9.42,-3.92zm431.39,-131.72c5.74,3.33 9.88,8.2 11.88,11.58l0.1,0.17l0.02,0.03c3.4,5.41 6.14,9.36 8.82,12.2c-2.25,-0.34 -4.62,-0.88 -6.98,-1.56c-5.51,-1.56 -10.62,-3.73 -13.59,-5.22l-0.1,-0.06l-0.11,-0.04c-42.32,-17.33 -90.82,-9.44 -117.42,4.35l-58.96,28.9c-0.25,-0.55 -0.44,-1.38 -0.44,-2.64c0,-2.3 0.69,-5.06 1.72,-7.31c3.65,-7.96 10.02,-12.62 17.1,-15.56c6.7,-2.77 13.82,-3.93 19.66,-4.87l0.63,-0.1l0.43,-0.07c17.92,-1.56 28.11,-13.28 31.07,-19.32l0.07,-0.14l0.06,-0.14c2.48,-6.72 5.49,-10.87 8.54,-13.33c3.01,-2.42 6.23,-3.34 9.45,-3.31c6.66,0.05 13.54,4.16 17.9,8.21l0.07,0.08l0.09,0.06c8.41,6.78 18.42,9.04 27.33,9.2c8.83,0.16 16.82,-1.74 21.63,-3.61c8.28,-2.52 15.39,-0.77 21.03,2.5zm30.66,23.64c0.96,-0.32 1.89,-0.67 2.67,-1.05c0.2,-0.1 0.38,-0.19 0.54,-0.28c-1.33,-0.64 -3.67,-1.4 -7.47,-2.17l-0.03,-0.01l-0.03,0c-0.36,-0.08 -0.76,-0.19 -1.19,-0.31c2.01,2.15 3.69,3.21 5.51,3.82zm-384.39,-235.12c-5.59,3.12 -10.6,8.38 -12.41,17.09l-0.05,0.2l-0.07,0.2c-2.58,7.23 -13.4,19.27 -35.95,17.3c-3.06,0.3 -7.28,1.32 -10.41,3.29c-1.59,0.99 -2.75,2.14 -3.43,3.4c-0.64,1.21 -0.94,2.72 -0.51,4.72l0.02,0.09l0.01,0.09c0.85,5.67 3.66,14.27 9.29,21.39c5.55,7.02 13.77,12.55 25.68,12.57c63.68,-2.12 128.03,-0.08 174.92,29.32c1.6,0.89 3.63,1.66 5.39,1.87c-14.05,-12.53 -45.82,-35.02 -87.11,-50.99c-8.18,-1.56 -26.21,-2.98 -41.81,2.28c-18.14,6.11 -35.04,0.97 -41.47,-2.5c-1.45,-0.79 -2,-2.61 -1.21,-4.07c0.79,-1.46 2.61,-2 4.07,-1.21c5.32,2.88 20.48,7.56 36.69,2.09c7.41,-2.5 15.26,-3.61 22.47,-3.92c-7.5,-2.27 -15.23,-4.27 -23.16,-5.92c-1.62,-0.34 -2.66,-1.93 -2.32,-3.55c0.33,-1.62 1.92,-2.67 3.55,-2.33c14.08,2.94 27.56,6.95 40.23,11.6c0.26,-3.7 0.16,-8.83 -0.88,-14.22c-1.29,-6.71 -3.96,-13.54 -8.85,-18.57c-1.15,-1.19 -1.12,-3.09 0.07,-4.25c1.19,-1.15 3.09,-1.12 4.24,0.07c5.99,6.17 9.02,14.25 10.43,21.62c1.29,6.71 1.29,13.07 0.83,17.36c0.39,0.13 0.73,0.34 1.02,0.6c11.86,4.66 22.92,9.84 33.01,15.16c0.61,-3.82 1.12,-8.86 1.1,-14.17c-0.03,-7.23 -1.05,-14.63 -3.85,-20.21c-0.75,-1.48 -0.15,-3.28 1.33,-4.02c1.48,-0.75 3.29,-0.15 4.03,1.33c3.41,6.79 4.46,15.28 4.49,22.87c0.03,6.64 -0.72,12.88 -1.54,17.2c22.36,12.32 39.37,24.99 48.77,33.4c0.87,-4.88 1.14,-13.07 -0.98,-21.74c-2.15,-8.77 -6.69,-17.85 -15.32,-24.55l-0.55,-0.43l-0.31,-0.63c-5.97,-12.3 -17.22,-30.48 -31.48,-44.92c-14.33,-14.5 -31.05,-24.59 -48.1,-22.36c-8.64,1.87 -29.42,5.19 -44.13,3.43c-3.94,-0.08 -10.12,0.88 -15.74,4.02zm166.92,29.32c-1.82,-46.94 19.24,-74.91 29.53,-82.89c22.85,-14.08 42.58,-14.24 56.47,-8.72c14.17,5.62 22.15,16.97 22.33,26c0.53,25.72 19.51,35.75 28.04,37.6c0.02,0 0.04,0.01 0.06,0.01c16.91,3.32 24.32,10.61 27.24,17.75c3,7.35 1.58,15.33 -0.75,20.44c-0.2,0.46 -0.29,0.96 -0.26,1.46c0.38,5.16 -2.14,9.07 -5.9,12.04c-3.8,3.01 -8.6,4.8 -11.81,5.48c-0.6,0.13 -1.15,0.44 -1.56,0.88c-3.63,3.87 -9.2,5.45 -15.19,5.64c-5.94,0.19 -11.77,-1.03 -15.26,-2.18c-0.22,-0.08 -0.45,-0.13 -0.68,-0.14c-16.77,-1.45 -38.69,2.08 -59.05,6.95c-18.31,4.38 -35.63,9.91 -47.28,14.14c10.56,-6.55 24.04,-16.18 37.99,-26.69c10.71,2.44 38.48,5.04 75.13,-1.56c1.64,-0.29 2.72,-1.85 2.43,-3.48c-0.3,-1.63 -1.86,-2.72 -3.49,-2.42c-30.95,5.56 -55.2,4.39 -67.59,2.55l0.32,-0.25l0.44,-0.33c10,-7.66 20.1,-15.61 29.44,-23.09c3.12,0.81 7.25,1.61 11.44,1.87c5.11,0.33 11.07,-0.07 15.21,-2.97c1.36,-0.95 1.7,-2.82 0.75,-4.18c-0.95,-1.35 -2.82,-1.69 -4.18,-0.74c-2.36,1.65 -6.51,2.22 -11.4,1.91c-1.99,-0.13 -3.98,-0.39 -5.82,-0.72c8.61,-6.97 16.35,-13.34 22.45,-18.45c1.27,-1.06 1.43,-2.95 0.37,-4.23c-1.06,-1.27 -2.95,-1.43 -4.22,-0.37c-6.19,5.18 -14.06,11.67 -22.83,18.75c0.15,-3.63 0.47,-7.89 1.05,-12.1c0.95,-6.84 2.53,-12.91 4.77,-16.1c0.96,-1.36 0.63,-3.23 -0.73,-4.18c-1.36,-0.95 -3.23,-0.62 -4.18,0.73c-3.15,4.49 -4.85,11.87 -5.8,18.72c-0.92,6.64 -1.22,13.36 -1.21,17.84c-9.14,7.32 -18.99,15.08 -28.76,22.54c-0.45,0.34 -0.89,0.68 -1.33,1.02c-0.35,-8.63 -0.04,-20.53 1.81,-33.19c2.32,-15.82 7,-32.54 15.57,-45.51c0.91,-1.38 0.53,-3.24 -0.85,-4.15c-1.38,-0.92 -3.24,-0.54 -4.16,0.84c-9.25,14.01 -14.12,31.71 -16.49,47.96c-2.22,15.14 -2.31,29.27 -1.65,38.42c-4.34,3.27 -8.61,6.44 -12.74,9.44c-1.35,-5.48 -2.75,-13.16 -3.33,-21.52c-0.72,-10.43 -0.14,-21.62 3.18,-30.83c0.57,-1.56 -0.24,-3.28 -1.8,-3.84c-1.56,-0.57 -3.28,0.24 -3.84,1.8c-3.73,10.33 -4.27,22.47 -3.53,33.28c0.69,9.94 2.49,18.99 4.09,24.87c-10.85,7.73 -20.48,14.08 -27.49,17.8c-1.07,-1.95 -1.5,-4.67 -1.47,-6.83c0.01,-0.44 -0.08,-0.87 -0.25,-1.27c-2.85,-6.41 -2.59,-14.98 -0.8,-23.49c1.77,-8.42 4.91,-16.25 7.24,-20.84c0.23,-0.45 0.35,-0.96 0.33,-1.47zm-107.16,137.43c3.08,-2.67 5.74,-5.77 7.72,-8.5c-14.97,-1.74 -31.37,-1.48 -49.08,1.64c-0.04,3.19 -0.51,7.02 -1.81,10.46c-1.81,4.76 -5.5,9.38 -12.24,9.57c-1.66,0.05 -3.04,-1.26 -3.09,-2.92c-0.04,-1.65 1.26,-3.03 2.92,-3.08c3.37,-0.09 5.47,-2.18 6.79,-5.69c1.33,-3.52 1.59,-7.85 1.37,-10.84l-0.01,-0.02c-0.05,-0.1 -0.21,-0.45 -0.71,-1.04c-0.65,-0.77 -1.69,-1.73 -3.18,-2.75c-2.96,-2.04 -7.55,-4.21 -13.93,-5.6c-1.62,-0.35 -2.65,-1.94 -2.3,-3.56c0.35,-1.62 1.95,-2.65 3.57,-2.3c7.06,1.53 12.38,3.99 16.06,6.51c1.83,1.26 3.3,2.57 4.36,3.83c0.4,0.47 0.78,0.98 1.12,1.53c18.01,-3.18 34.73,-3.5 50.03,-1.8c-1.9,-7.05 -8.54,-17.67 -25.61,-20.32c-1.63,-0.25 -2.75,-1.78 -2.5,-3.42c0.25,-1.64 1.78,-2.76 3.42,-2.51c21.56,3.34 29.44,18.01 31.01,27.08c15.31,2.31 29.12,6.62 41.29,12.03c-0.11,-2.49 -0.44,-5.61 -1.11,-8.87c-1.02,-4.91 -2.78,-9.87 -5.58,-13.52c-1,-1.32 -0.75,-3.2 0.56,-4.21c1.32,-1 3.2,-0.75 4.21,0.56c3.56,4.67 5.57,10.61 6.68,15.95c1.05,5.05 1.35,9.81 1.29,12.92c19.16,9.48 33.82,21.51 43.44,31.98c-20.67,-64.91 -66.5,-85.23 -87.33,-87.29c-0.34,-0.04 -0.68,-0.13 -0.99,-0.28c-19.89,-9.47 -41.67,-6.16 -61.18,2.23c-19.51,8.38 -36.29,21.65 -45.72,31.28c-0.4,0.41 -0.93,0.7 -1.49,0.83c-7.18,1.57 -9.78,4.26 -10.91,6.43c-0.62,1.17 -0.92,2.41 -1.11,3.71c-0.08,0.59 -0.14,1.15 -0.2,1.75l-0.02,0.21c-0.05,0.51 -0.11,1.08 -0.2,1.63c0.08,2.38 -0.77,4.59 -1.86,6.45c-1.15,1.99 -2.73,3.84 -4.27,5.44c-1.48,1.53 -3.02,2.94 -4.29,4.09l-0.18,0.17c-0.19,0.16 -0.36,0.32 -0.52,0.47c0.66,0.33 1.5,0.64 2.53,0.92c2.49,0.66 5.65,0.98 9.13,1.04c6.95,0.13 14.64,-0.81 19.58,-1.72c0.69,-0.13 1.4,-0.01 2.01,0.33c34,18.96 56.15,15.23 62.24,11.87c0.03,-0.02 0.06,-0.04 0.09,-0.05c0.01,-0.01 0.03,-0.02 0.04,-0.02c24.02,-11.74 39.17,-7.49 44.46,-2.3c29.53,23.02 63.66,25.22 81.03,23.1c-13.27,-17.29 -44.9,-43.59 -91.16,-50.98c-2.29,3.57 -5.94,8.22 -10.44,12.12c-5.06,4.38 -11.65,8.21 -18.89,7.81c-1.65,-0.09 -2.92,-1.51 -2.82,-3.16c0.09,-1.65 1.5,-2.92 3.16,-2.83c4.92,0.28 10.01,-2.37 14.62,-6.36zm76.97,111.28c0,0 0.01,0 0.04,0.02c-0.03,-0.01 -0.04,-0.02 -0.04,-0.02z" fill="rgb(199,182,159)" fill-rule="evenodd" id="svg_3" stroke-dashoffset="0" stroke-miterlimit="4" transform="translate(-331 -490.28)"/>
   </g>
   <g id="svg_58">
    <g id="svg_4" transform="matrix(0.58 0 0 0.58 668.63 151.75)">
     <path d="m-348.24,1341.05l0,-2.52l2.4,-0.6c1.6,-0.48 2.64,-1.2 3.12,-2.16c0.48,-0.96 0.72,-2.28 0.72,-3.96c0.08,-4.56 0.12,-9.16 0.12,-13.8c0,-4.72 0,-9.44 0,-14.16l0,-4.92c0,-4.64 0,-9.28 0,-13.92c0,-4.64 -0.04,-9.28 -0.12,-13.92c0,-1.68 -0.28,-2.96 -0.84,-3.84c-0.48,-0.96 -1.52,-1.72 -3.12,-2.28l-2.28,-0.72l0,-2.52l28.92,0c11.68,0 20.16,2.2 25.44,6.6c5.36,4.32 8.04,10.04 8.04,17.16c0,4.48 -1.12,8.64 -3.36,12.48c-2.16,3.76 -5.76,6.76 -10.8,9c-5.04,2.24 -11.84,3.36 -20.4,3.36l-4.32,0c0,3.36 0,6.84 0,10.44c0,3.52 0.04,7.12 0.12,10.8c0,3.28 1.48,5.28 4.44,6l3.6,0.96l0,2.52l-31.68,0zm23.52,-34.2l5.04,0c4,0 7.24,-0.6 9.72,-1.8c2.56,-1.28 4.44,-3.44 5.64,-6.48c1.28,-3.04 1.92,-7.24 1.92,-12.6c0,-5.36 -0.68,-9.52 -2.04,-12.48c-1.28,-3.04 -3.24,-5.16 -5.88,-6.36c-2.64,-1.28 -5.92,-1.92 -9.84,-1.92l-4.44,0c-0.08,5.52 -0.12,11.12 -0.12,16.8c0,5.6 0,11.24 0,16.92l0,7.92z" fill="rgb(199,182,159)" fill-rule="nonzero" id="svg_5" stroke-dashoffset="0" stroke-miterlimit="4" transform="translate(-41.93 -1064.36)"/>
    </g>
    <g id="svg_6" transform="matrix(0.58 0 0 0.58 713.21 158.04)">
     <path d="m-252.99,1342.73c-4.56,0 -8.44,-1.28 -11.64,-3.84c-3.12,-2.64 -4.68,-6.4 -4.68,-11.28c0,-3.84 1.84,-7.36 5.52,-10.56c3.76,-3.28 9.64,-5.68 17.64,-7.2c1.36,-0.32 2.92,-0.6 4.68,-0.84c1.84,-0.32 3.64,-0.64 5.4,-0.96l0,-8.52c0,-5.44 -0.68,-9.2 -2.04,-11.28c-1.36,-2.08 -3.52,-3.12 -6.48,-3.12l-0.36,0c-1.84,0 -3.32,0.6 -4.44,1.8c-1.04,1.12 -1.72,3 -2.04,5.64l-0.36,1.56c-0.24,3.2 -1.08,5.56 -2.52,7.08c-1.44,1.44 -3.24,2.16 -5.4,2.16c-2,0 -3.68,-0.6 -5.04,-1.8c-1.28,-1.28 -1.92,-2.92 -1.92,-4.92c0,-3.28 1.12,-6.04 3.36,-8.28c2.24,-2.24 5.2,-3.92 8.88,-5.04c3.76,-1.12 7.8,-1.68 12.12,-1.68c7.12,0 12.56,1.72 16.32,5.16c3.76,3.44 5.64,9.04 5.64,16.8l0,26.76c0,3.44 1.64,5.16 4.92,5.16l2.76,0l1.2,1.32c-1.44,1.84 -3.04,3.24 -4.8,4.2c-1.76,1.04 -4.16,1.56 -7.2,1.56c-3.44,0 -6.2,-0.8 -8.28,-2.4c-2,-1.68 -3.32,-3.88 -3.96,-6.6c-2.56,2.72 -5.08,4.92 -7.56,6.6c-2.48,1.68 -5.72,2.52 -9.72,2.52zm6.96,-7.68c1.6,0 3.12,-0.36 4.56,-1.08c1.44,-0.72 3.24,-1.92 5.4,-3.6l0,-19.2c-2.08,0.32 -4.2,0.72 -6.36,1.2c-3.44,0.8 -6.24,2.28 -8.4,4.44c-2.08,2.16 -3.12,5.08 -3.12,8.76c0,3.2 0.72,5.6 2.16,7.2c1.52,1.52 3.44,2.28 5.76,2.28z" fill="rgb(199,182,159)" fill-rule="nonzero" id="svg_7" stroke-dashoffset="0" stroke-miterlimit="4" transform="translate(-118.58 -1075.16)"/>
    </g>
    <g id="svg_8" transform="matrix(0.58 0 0 0.58 756.97 157.55)">
     <path d="m-197.1,1341.05l0,-2.28l1.92,-0.48c2.64,-0.8 3.96,-2.76 3.96,-5.88l0,-35.4c-0.08,-1.68 -0.36,-2.96 -0.84,-3.84c-0.48,-0.96 -1.52,-1.6 -3.12,-1.92l-1.92,-0.48l0,-2.16l19.44,-6.96l1.44,1.32l0.84,7.44c2.88,-2.56 6.08,-4.64 9.6,-6.24c3.6,-1.68 7.12,-2.52 10.56,-2.52c5.28,0 9.32,1.44 12.12,4.32c2.88,2.88 4.32,7.28 4.32,13.2l0,33.36c0,3.12 1.44,5.08 4.32,5.88l1.32,0.36l0,2.28l-27.6,0l0,-2.28l1.8,-0.48c2.64,-0.88 3.96,-2.84 3.96,-5.88l0,-35.64c0,-2.8 -0.6,-4.84 -1.8,-6.12c-1.2,-1.28 -3.2,-1.92 -6,-1.92c-3.92,0 -8,1.72 -12.24,5.16l0,38.64c0,3.12 1.4,5.08 4.2,5.88l1.2,0.36l0,2.28l-27.48,0z" fill="rgb(199,182,159)" fill-rule="nonzero" id="svg_9" stroke-dashoffset="0" stroke-miterlimit="4" transform="translate(-193.85 -1074.32)"/>
    </g>
    <g id="svg_10" transform="matrix(0.58 0 0 0.58 803.85 150.8)">
     <path d="m-90.99,1342.73c-4.72,0 -8.96,-1.04 -12.72,-3.12c-3.76,-2.16 -6.72,-5.44 -8.88,-9.84c-2.08,-4.48 -3.12,-10.16 -3.12,-17.04c0,-6.88 1.2,-12.6 3.6,-17.16c2.4,-4.64 5.6,-8.12 9.6,-10.44c4,-2.32 8.4,-3.48 13.2,-3.48c2.88,0 5.64,0.36 8.28,1.08c2.64,0.64 4.96,1.64 6.96,3l0,-15.6c0,-1.68 -0.28,-2.88 -0.84,-3.6c-0.48,-0.8 -1.52,-1.4 -3.12,-1.8l-2.4,-0.48l0,-2.28l20.88,-5.16l1.56,1.08l-0.48,16.92l0,57.72c0,1.52 0.28,2.8 0.84,3.84c0.56,0.96 1.56,1.64 3,2.04l1.32,0.36l0,2.28l-19.92,1.32l-1.08,-5.04c-2.16,1.68 -4.64,3 -7.44,3.96c-2.8,0.96 -5.88,1.44 -9.24,1.44zm6.6,-5.52c3.44,0 6.68,-1.12 9.72,-3.36l0,-44.64c-2.96,-1.84 -6.16,-2.76 -9.6,-2.76c-3.92,0 -7.28,2.08 -10.08,6.24c-2.8,4.08 -4.2,10.68 -4.2,19.8c0,9.12 1.32,15.52 3.96,19.2c2.64,3.68 6.04,5.52 10.2,5.52z" fill="rgb(199,182,159)" fill-rule="nonzero" id="svg_11" stroke-dashoffset="0" stroke-miterlimit="4" transform="translate(-274.46 -1062.74)"/>
    </g>
    <g id="svg_12" transform="matrix(0.58 0 0 0.58 849.93 158.25)">
     <path d="m-14.98,1342.73c-3.12,0 -5.96,-0.56 -8.52,-1.68c-2.56,-1.2 -4.6,-3.12 -6.12,-5.76c-1.44,-2.72 -2.12,-6.28 -2.04,-10.68l0.36,-30.12c0,-1.76 -0.28,-3.04 -0.84,-3.84c-0.56,-0.8 -1.56,-1.36 -3,-1.68l-1.44,-0.48l0,-2.16l20.52,-3.96l1.32,1.32l-0.6,16.92l0,27.24c0,2.72 0.72,4.72 2.16,6c1.52,1.2 3.4,1.8 5.64,1.8c2.32,0 4.4,-0.32 6.24,-0.96c1.92,-0.72 3.88,-1.76 5.88,-3.12l0.36,-36.96c0,-1.84 -0.28,-3.12 -0.84,-3.84c-0.48,-0.72 -1.44,-1.28 -2.88,-1.68l-1.32,-0.36l0,-2.16l20.04,-4.2l1.32,1.32l-0.36,16.92l0,31.44c0,1.68 0.2,3.04 0.6,4.08c0.48,0.96 1.48,1.68 3,2.16l1.56,0.48l0,2.28l-20.28,1.2l-1.08,-7.56c-2.72,2.32 -5.68,4.24 -8.88,5.76c-3.2,1.52 -6.8,2.28 -10.8,2.28z" fill="rgb(199,182,159)" fill-rule="nonzero" id="svg_13" stroke-dashoffset="0" stroke-miterlimit="4" transform="translate(-353.71 -1075.52)"/>
    </g>
    <g id="svg_14" transform="matrix(0.58 0 0 0.58 891.99 157.55)">
     <path d="m42.93,1341.05l0,-2.28l1.8,-0.6c1.6,-0.4 2.68,-1.08 3.24,-2.04c0.64,-0.96 0.96,-2.24 0.96,-3.84l0,-35.16c-0.08,-1.76 -0.4,-3.08 -0.96,-3.96c-0.56,-0.96 -1.64,-1.6 -3.24,-1.92l-1.8,-0.48l0,-2.16l19.56,-6.96l1.44,1.32l1.08,10.56l0,0.84c1.2,-2.24 2.72,-4.32 4.56,-6.24c1.84,-1.92 3.84,-3.48 6,-4.68c2.16,-1.2 4.32,-1.8 6.48,-1.8c3.04,0 5.32,0.8 6.84,2.4c1.52,1.6 2.28,3.64 2.28,6.12c0,2.72 -0.76,4.8 -2.28,6.24c-1.52,1.36 -3.36,2.04 -5.52,2.04c-3.2,0 -5.96,-1.44 -8.28,-4.32l-0.24,-0.24c-0.8,-0.96 -1.72,-1.48 -2.76,-1.56c-0.96,-0.16 -1.92,0.32 -2.88,1.44c-0.8,0.8 -1.56,1.76 -2.28,2.88c-0.64,1.04 -1.24,2.28 -1.8,3.72l0,31.44c0,1.52 0.32,2.8 0.96,3.84c0.64,0.96 1.72,1.64 3.24,2.04l3.6,1.08l0,2.28l-30,0z" fill="rgb(199,182,159)" fill-rule="nonzero" id="svg_15" stroke-dashoffset="0" stroke-miterlimit="4" transform="translate(-426.02 -1074.32)"/>
    </g>
    <g id="svg_16" transform="matrix(0.58 0 0 0.58 931.34 158.04)">
     <path d="m122.13,1342.73c-4.56,0 -8.44,-1.28 -11.64,-3.84c-3.12,-2.64 -4.68,-6.4 -4.68,-11.28c0,-3.84 1.84,-7.36 5.52,-10.56c3.76,-3.28 9.64,-5.68 17.64,-7.2c1.36,-0.32 2.92,-0.6 4.68,-0.84c1.84,-0.32 3.64,-0.64 5.4,-0.96l0,-8.52c0,-5.44 -0.68,-9.2 -2.04,-11.28c-1.36,-2.08 -3.52,-3.12 -6.48,-3.12l-0.36,0c-1.84,0 -3.32,0.6 -4.44,1.8c-1.04,1.12 -1.72,3 -2.04,5.64l-0.36,1.56c-0.24,3.2 -1.08,5.56 -2.52,7.08c-1.44,1.44 -3.24,2.16 -5.4,2.16c-2,0 -3.68,-0.6 -5.04,-1.8c-1.28,-1.28 -1.92,-2.92 -1.92,-4.92c0,-3.28 1.12,-6.04 3.36,-8.28c2.24,-2.24 5.2,-3.92 8.88,-5.04c3.76,-1.12 7.8,-1.68 12.12,-1.68c7.12,0 12.56,1.72 16.32,5.16c3.76,3.44 5.64,9.04 5.64,16.8l0,26.76c0,3.44 1.64,5.16 4.92,5.16l2.76,0l1.2,1.32c-1.44,1.84 -3.04,3.24 -4.8,4.2c-1.76,1.04 -4.16,1.56 -7.2,1.56c-3.44,0 -6.2,-0.8 -8.28,-2.4c-2,-1.68 -3.32,-3.88 -3.96,-6.6c-2.56,2.72 -5.08,4.92 -7.56,6.6c-2.48,1.68 -5.72,2.52 -9.72,2.52zm6.96,-7.68c1.6,0 3.12,-0.36 4.56,-1.08c1.44,-0.72 3.24,-1.92 5.4,-3.6l0,-19.2c-2.08,0.32 -4.2,0.72 -6.36,1.2c-3.44,0.8 -6.24,2.28 -8.4,4.44c-2.08,2.16 -3.12,5.08 -3.12,8.76c0,3.2 0.72,5.6 2.16,7.2c1.52,1.52 3.44,2.28 5.76,2.28z" fill="rgb(199,182,159)" fill-rule="nonzero" id="svg_17" stroke-dashoffset="0" stroke-miterlimit="4" transform="translate(-493.7 -1075.16)"/>
    </g>
    <g id="svg_18" transform="matrix(0.58 0 0 0.58 967.54 153.7)">
     <path d="m200.93,1342.73c-4.96,0 -8.88,-1.2 -11.76,-3.6c-2.8,-2.48 -4.2,-6.48 -4.2,-12c0,-1.92 0,-3.72 0,-5.4c0.08,-1.76 0.12,-3.8 0.12,-6.12l0,-28.44l-8.52,0l0,-2.64l3.24,-0.48c2.32,-0.4 4.28,-1.12 5.88,-2.16c1.68,-1.04 3.2,-2.48 4.56,-4.32l7.8,-10.8l3.6,0l-0.36,16.68l13.68,0l0,3.72l-13.8,0l0,40.92c0,2.88 0.6,5.04 1.8,6.48c1.28,1.44 2.84,2.16 4.68,2.16c1.6,0 3.04,-0.36 4.32,-1.08c1.28,-0.8 2.56,-1.84 3.84,-3.12l1.56,1.8c-1.52,2.64 -3.64,4.72 -6.36,6.24c-2.72,1.44 -6.08,2.16 -10.08,2.16z" fill="rgb(199,182,159)" fill-rule="nonzero" id="svg_19" stroke-dashoffset="0" stroke-miterlimit="4" transform="translate(-555.94 -1067.72)"/>
    </g>
    <g id="svg_20" transform="matrix(0.58 0 0 0.58 1006.14 158.04)">
     <path d="m250.78,1342.73c-4.56,0 -8.44,-1.28 -11.64,-3.84c-3.12,-2.64 -4.68,-6.4 -4.68,-11.28c0,-3.84 1.84,-7.36 5.52,-10.56c3.76,-3.28 9.64,-5.68 17.64,-7.2c1.36,-0.32 2.92,-0.6 4.68,-0.84c1.84,-0.32 3.64,-0.64 5.4,-0.96l0,-8.52c0,-5.44 -0.68,-9.2 -2.04,-11.28c-1.36,-2.08 -3.52,-3.12 -6.48,-3.12l-0.36,0c-1.84,0 -3.32,0.6 -4.44,1.8c-1.04,1.12 -1.72,3 -2.04,5.64l-0.36,1.56c-0.24,3.2 -1.08,5.56 -2.52,7.08c-1.44,1.44 -3.24,2.16 -5.4,2.16c-2,0 -3.68,-0.6 -5.04,-1.8c-1.28,-1.28 -1.92,-2.92 -1.92,-4.92c0,-3.28 1.12,-6.04 3.36,-8.28c2.24,-2.24 5.2,-3.92 8.88,-5.04c3.76,-1.12 7.8,-1.68 12.12,-1.68c7.12,0 12.56,1.72 16.32,5.16c3.76,3.44 5.64,9.04 5.64,16.8l0,26.76c0,3.44 1.64,5.16 4.92,5.16l2.76,0l1.2,1.32c-1.44,1.84 -3.04,3.24 -4.8,4.2c-1.76,1.04 -4.16,1.56 -7.2,1.56c-3.44,0 -6.2,-0.8 -8.28,-2.4c-2,-1.68 -3.32,-3.88 -3.96,-6.6c-2.56,2.72 -5.08,4.92 -7.56,6.6c-2.48,1.68 -5.72,2.52 -9.72,2.52zm6.96,-7.68c1.6,0 3.12,-0.36 4.56,-1.08c1.44,-0.72 3.24,-1.92 5.4,-3.6l0,-19.2c-2.08,0.32 -4.2,0.72 -6.36,1.2c-3.44,0.8 -6.24,2.28 -8.4,4.44c-2.08,2.16 -3.12,5.08 -3.12,8.76c0,3.2 0.72,5.6 2.16,7.2c1.52,1.52 3.44,2.28 5.76,2.28z" fill="rgb(199,182,159)" fill-rule="nonzero" id="svg_21" stroke-dashoffset="0" stroke-miterlimit="4" transform="translate(-622.35 -1075.16)"/>
    </g>
    <g id="svg_22" transform="matrix(0.58 0 0 0.58 649.39 211.45)">
     <circle cx="-358.97" cy="237.03" fill="rgb(199,182,159)" fill-rule="nonzero" id="svg_23" r="5.5" stroke-dashoffset="0" stroke-miterlimit="4"/>
    </g>
    <g id="svg_24" transform="matrix(0.58 0 0 0.58 678.23 208.9)">
     <path d="m-300,1416.43c-4.41,0 -7.92,-1.53 -10.62,-4.68c-2.75,-3.06 -4.1,-7.15 -4.1,-12.24c0,-5.04 1.35,-9.04 4.1,-12.1c2.7,-3.06 6.21,-4.59 10.62,-4.59c3.6,0 6.66,0.99 9.13,2.92c2.39,1.98 3.78,4.59 4.23,7.92l-5.31,0c-0.45,-1.89 -1.3,-3.37 -2.65,-4.45c-1.35,-1.08 -3.06,-1.62 -5.13,-1.62c-2.97,0 -5.31,1.08 -6.98,3.19c-1.71,2.16 -2.52,5.04 -2.52,8.73c0,3.74 0.81,6.71 2.52,8.87c1.71,2.2 4.01,3.28 6.98,3.28c2.25,0 4.05,-0.63 5.44,-1.89c1.35,-1.26 2.21,-3.01 2.57,-5.31l5.26,0c-0.4,3.78 -1.8,6.71 -4.18,8.82c-2.43,2.12 -5.54,3.15 -9.36,3.15z" fill="rgb(199,182,159)" fill-rule="nonzero" id="svg_25" stroke-dashoffset="0" stroke-miterlimit="4" transform="translate(-58.38 -1162.6)"/>
    </g>
    <g id="svg_26" transform="matrix(0.58 0 0 0.58 700.38 211.43)">
     <path d="m-254.2,1412.74c-2.16,2.34 -4.95,3.47 -8.32,3.47c-3.42,0 -6.21,-1.13 -8.28,-3.42c-2.16,-2.3 -3.24,-5.22 -3.24,-8.82c0,-3.6 1.08,-6.57 3.24,-8.87c2.16,-2.25 4.95,-3.37 8.37,-3.37c3.37,0 6.12,1.12 8.28,3.37c2.11,2.3 3.19,5.22 3.19,8.78c0,3.64 -1.08,6.61 -3.24,8.86zm-8.32,-0.76c1.98,0 3.51,-0.72 4.68,-2.21c1.17,-1.44 1.75,-3.42 1.75,-5.89c0,-2.43 -0.58,-4.37 -1.71,-5.81c-1.17,-1.39 -2.74,-2.11 -4.72,-2.11c-1.98,0 -3.56,0.72 -4.68,2.16c-1.13,1.44 -1.67,3.42 -1.67,5.85c0,2.43 0.54,4.41 1.71,5.85c1.13,1.44 2.66,2.16 4.64,2.16z" fill="rgb(199,182,159)" fill-rule="nonzero" id="svg_27" stroke-dashoffset="0" stroke-miterlimit="4" transform="translate(-96.47 -1166.94)"/>
    </g>
    <g id="svg_28" transform="matrix(0.58 0 0 0.58 718.03 208.83)">
     <path d="m-225.36,1387.77l-2.03,0c-1.03,0 -1.75,0.22 -2.16,0.67c-0.45,0.45 -0.63,1.13 -0.63,2.12l0,1.89l4.82,-0.14l0,3.96l-4.82,-0.18l0,19.44l-5.26,0l0,-19.39l-3.51,0.13l0,-3.96l3.51,0.14l0,-1.76c0,-4.77 2.38,-7.2 7.2,-7.2l2.88,0l0,4.28z" fill="rgb(199,182,159)" fill-rule="nonzero" id="svg_29" stroke-dashoffset="0" stroke-miterlimit="4" transform="translate(-126.81 -1162.48)"/>
    </g>
    <g id="svg_30" transform="matrix(0.58 0 0 0.58 732.34 208.83)">
     <path d="m-200.76,1387.77l-2.03,0c-1.03,0 -1.75,0.22 -2.16,0.67c-0.45,0.45 -0.63,1.13 -0.63,2.12l0,1.89l4.82,-0.14l0,3.96l-4.82,-0.18l0,19.44l-5.26,0l0,-19.39l-3.51,0.13l0,-3.96l3.51,0.14l0,-1.76c0,-4.77 2.38,-7.2 7.2,-7.2l2.88,0l0,4.28z" fill="rgb(199,182,159)" fill-rule="nonzero" id="svg_31" stroke-dashoffset="0" stroke-miterlimit="4" transform="translate(-151.41 -1162.48)"/>
    </g>
    <g id="svg_32" transform="matrix(0.58 0 0 0.58 749.46 211.43)">
     <path d="m-166.84,1404.06l0,1.3l-17.15,0c0.09,2.16 0.72,3.78 1.8,4.95c1.08,1.17 2.57,1.71 4.46,1.71c2.65,0 4.45,-1.26 5.4,-3.78l5.04,0.45c-0.72,2.43 -2.03,4.32 -3.83,5.58c-1.8,1.31 -4,1.94 -6.61,1.94c-3.6,0 -6.44,-1.13 -8.51,-3.47c-2.07,-2.25 -3.1,-5.22 -3.1,-8.91c0,-3.51 0.99,-6.43 3.01,-8.73c2.03,-2.25 4.77,-3.37 8.19,-3.37c3.38,0 6.12,1.12 8.19,3.28c2.07,2.25 3.11,5.27 3.11,9.05zm-7.11,-6.75c-1.04,-0.99 -2.39,-1.53 -4.05,-1.53c-1.71,0 -3.11,0.54 -4.1,1.53c-1.08,1.08 -1.71,2.52 -1.84,4.41l11.83,0c-0.27,-1.94 -0.85,-3.42 -1.84,-4.41z" fill="rgb(199,182,159)" fill-rule="nonzero" id="svg_33" stroke-dashoffset="0" stroke-miterlimit="4" transform="translate(-180.88 -1166.94)"/>
    </g>
    <g id="svg_34" transform="matrix(0.58 0 0 0.58 769.9 211.43)">
     <path d="m-131.69,1404.06l0,1.3l-17.15,0c0.09,2.16 0.72,3.78 1.8,4.95c1.08,1.17 2.57,1.71 4.46,1.71c2.65,0 4.45,-1.26 5.4,-3.78l5.04,0.45c-0.72,2.43 -2.03,4.32 -3.83,5.58c-1.8,1.31 -4,1.94 -6.61,1.94c-3.6,0 -6.44,-1.13 -8.51,-3.47c-2.07,-2.25 -3.1,-5.22 -3.1,-8.91c0,-3.51 0.99,-6.43 3.01,-8.73c2.03,-2.25 4.77,-3.37 8.19,-3.37c3.38,0 6.12,1.12 8.19,3.28c2.07,2.25 3.11,5.27 3.11,9.05zm-7.11,-6.75c-1.04,-0.99 -2.39,-1.53 -4.05,-1.53c-1.71,0 -3.11,0.54 -4.1,1.53c-1.08,1.08 -1.71,2.52 -1.84,4.41l11.83,0c-0.27,-1.94 -0.85,-3.42 -1.84,-4.41z" fill="rgb(199,182,159)" fill-rule="nonzero" id="svg_35" stroke-dashoffset="0" stroke-miterlimit="4" transform="translate(-216.03 -1166.94)"/>
    </g>
    <g id="svg_36" transform="matrix(0.58 0 0 0.58 805.31 208.81)">
     <path d="m-73.25,1408.6l6.21,6.98l-6.57,0l-2.88,-3.29c-2.74,2.61 -5.98,3.92 -9.67,3.92c-3.24,0 -5.85,-0.81 -7.88,-2.52c-2.02,-1.62 -3.01,-3.87 -3.01,-6.71c0,-4.41 2.47,-7.6 7.47,-9.63c-1.4,-1.44 -2.39,-2.92 -2.93,-4.45c-0.54,-1.49 -0.72,-2.84 -0.45,-4.01c0.23,-1.17 0.72,-2.25 1.49,-3.19c0.72,-0.95 1.71,-1.67 2.97,-2.21c1.21,-0.49 2.56,-0.76 4,-0.76c2.52,0 4.59,0.72 6.26,2.11c1.62,1.4 2.43,3.2 2.43,5.4c0,3.51 -2.12,6.3 -6.35,8.42l5.76,6.43c0.72,-1.66 1.22,-3.46 1.44,-5.44l5.04,0c-0.45,3.37 -1.57,6.34 -3.33,8.95zm-8.55,-20.61c-0.81,-0.54 -1.71,-0.85 -2.61,-0.9c-0.94,0 -1.8,0.27 -2.52,0.9c-0.76,0.63 -1.12,1.44 -1.03,2.39c0,1.26 0.58,2.52 1.8,3.78l1.03,1.17c1.53,-0.72 2.61,-1.44 3.33,-2.21c0.68,-0.72 1.04,-1.62 1.04,-2.61c0,-1.03 -0.36,-1.89 -1.04,-2.52zm-3.96,23.76c2.43,0 4.55,-0.9 6.35,-2.79l-7.2,-8.28c-3.47,1.44 -5.18,3.47 -5.18,6.03c0,1.53 0.54,2.75 1.62,3.65c1.08,0.94 2.52,1.39 4.41,1.39z" fill="rgb(199,182,159)" fill-rule="nonzero" id="svg_37" stroke-dashoffset="0" stroke-miterlimit="4" transform="translate(-276.93 -1162.44)"/>
    </g>
    <g id="svg_38" transform="matrix(0.58 0 0 0.58 841.31 208.9)">
     <path d="m-19.53,1416.43c-4.41,0 -7.92,-1.53 -10.62,-4.68c-2.75,-3.06 -4.1,-7.15 -4.1,-12.24c0,-5.04 1.35,-9.04 4.1,-12.1c2.7,-3.06 6.21,-4.59 10.62,-4.59c3.6,0 6.66,0.99 9.13,2.92c2.39,1.98 3.78,4.59 4.23,7.92l-5.31,0c-0.45,-1.89 -1.3,-3.37 -2.65,-4.45c-1.35,-1.08 -3.06,-1.62 -5.13,-1.62c-2.97,0 -5.31,1.08 -6.98,3.19c-1.71,2.16 -2.52,5.04 -2.52,8.73c0,3.74 0.81,6.71 2.52,8.87c1.71,2.2 4.01,3.28 6.98,3.28c2.25,0 4.05,-0.63 5.44,-1.89c1.35,-1.26 2.21,-3.01 2.57,-5.31l5.26,0c-0.4,3.78 -1.8,6.71 -4.18,8.82c-2.43,2.12 -5.54,3.15 -9.36,3.15z" fill="rgb(199,182,159)" fill-rule="nonzero" id="svg_39" stroke-dashoffset="0" stroke-miterlimit="4" transform="translate(-338.85 -1162.6)"/>
    </g>
    <g id="svg_40" transform="matrix(0.58 0 0 0.58 863.47 211.43)">
     <path d="m26.27,1412.74c-2.16,2.34 -4.95,3.47 -8.32,3.47c-3.42,0 -6.21,-1.13 -8.28,-3.42c-2.16,-2.3 -3.24,-5.22 -3.24,-8.82c0,-3.6 1.08,-6.57 3.24,-8.87c2.16,-2.25 4.95,-3.37 8.37,-3.37c3.37,0 6.12,1.12 8.28,3.37c2.11,2.3 3.19,5.22 3.19,8.78c0,3.64 -1.08,6.61 -3.24,8.86zm-8.32,-0.76c1.98,0 3.51,-0.72 4.68,-2.21c1.17,-1.44 1.75,-3.42 1.75,-5.89c0,-2.43 -0.58,-4.37 -1.71,-5.81c-1.17,-1.39 -2.74,-2.11 -4.72,-2.11c-1.98,0 -3.56,0.72 -4.68,2.16c-1.13,1.44 -1.67,3.42 -1.67,5.85c0,2.43 0.54,4.41 1.71,5.85c1.13,1.44 2.66,2.16 4.64,2.16z" fill="rgb(199,182,159)" fill-rule="nonzero" id="svg_41" stroke-dashoffset="0" stroke-miterlimit="4" transform="translate(-376.94 -1166.94)"/>
    </g>
    <g id="svg_42" transform="matrix(0.58 0 0 0.58 886.2 211.41)">
     <path d="m64.93,1404.15l3.2,-11.84l5.49,0l-7.25,23.22l-5.08,0l-3.33,-13.36l-0.86,-4.5l-0.9,4.5l-3.42,13.36l-5.13,0l-7.11,-23.22l5.58,0l3.11,11.84l1.21,5.85l1.17,-5.85l2.97,-11.84l5.09,0l2.92,11.79l1.17,5.85l1.17,-5.8z" fill="rgb(199,182,159)" fill-rule="nonzero" id="svg_43" stroke-dashoffset="0" stroke-miterlimit="4" transform="translate(-416.05 -1166.89)"/>
    </g>
    <g id="svg_44" transform="matrix(0.58 0 0 0.58 908.99 211.43)">
     <path d="m104.57,1412.74c-2.16,2.34 -4.96,3.47 -8.33,3.47c-3.42,0 -6.21,-1.13 -8.28,-3.42c-2.16,-2.3 -3.24,-5.22 -3.24,-8.82c0,-3.6 1.08,-6.57 3.24,-8.87c2.16,-2.25 4.95,-3.37 8.37,-3.37c3.38,0 6.12,1.12 8.28,3.37c2.11,2.3 3.19,5.22 3.19,8.78c0,3.64 -1.08,6.61 -3.23,8.86zm-8.33,-0.76c1.98,0 3.51,-0.72 4.68,-2.21c1.17,-1.44 1.75,-3.42 1.75,-5.89c0,-2.43 -0.58,-4.37 -1.7,-5.81c-1.18,-1.39 -2.75,-2.11 -4.73,-2.11c-1.98,0 -3.56,0.72 -4.68,2.16c-1.13,1.44 -1.66,3.42 -1.66,5.85c0,2.43 0.53,4.41 1.7,5.85c1.13,1.44 2.66,2.16 4.64,2.16z" fill="rgb(199,182,159)" fill-rule="nonzero" id="svg_45" stroke-dashoffset="0" stroke-miterlimit="4" transform="translate(-455.23 -1166.94)"/>
    </g>
    <g id="svg_46" transform="matrix(0.58 0 0 0.58 927.56 211.2)">
     <path d="m133.13,1391.59c0.49,0 0.99,0.05 1.48,0.14l0,4.99c-0.9,-0.04 -1.39,-0.09 -1.39,-0.09c-1.89,0 -3.38,0.63 -4.5,1.85c-1.13,1.21 -1.71,2.92 -1.71,5.08l0,11.97l-5.27,0l0,-23.22l5.04,0l-0.09,4.23c1.22,-3.28 3.38,-4.95 6.44,-4.95z" fill="rgb(199,182,159)" fill-rule="nonzero" id="svg_47" stroke-dashoffset="0" stroke-miterlimit="4" transform="translate(-487.15 -1166.53)"/>
    </g>
    <g id="svg_48" transform="matrix(0.58 0 0 0.58 945.01 208.83)">
     <path d="m168.86,1415.53l-6.21,0l-7.02,-11.11l-2.83,2.74l0,8.37l-5.27,0l0,-32.04l5.27,0l0,18.09l9.04,-9.27l6.62,0l-9.18,8.87l9.58,14.35z" fill="rgb(199,182,159)" fill-rule="nonzero" id="svg_49" stroke-dashoffset="0" stroke-miterlimit="4" transform="translate(-517.17 -1162.48)"/>
    </g>
    <g id="svg_50" transform="matrix(0.58 0 0 0.58 960.45 208.83)">
     <path d="m187.37,1388.62l-5.26,0l0,-5.13l5.26,0l0,5.13zm0,26.91l-5.26,0l0,-23.22l5.26,0l0,23.22z" fill="rgb(199,182,159)" fill-rule="nonzero" id="svg_51" stroke-dashoffset="0" stroke-miterlimit="4" transform="translate(-543.71 -1162.48)"/>
    </g>
    <g id="svg_52" transform="matrix(0.58 0 0 0.58 976.7 211.23)">
     <path d="m214.99,1391.73c2.43,0 4.32,0.72 5.67,2.11c1.35,1.44 2.07,3.38 2.07,5.85l0,15.84l-5.26,0l0,-14.71c0,-2.93 -1.35,-4.41 -4.01,-4.41c-1.66,0 -3.01,0.58 -4,1.71c-1.04,1.12 -1.53,2.7 -1.53,4.77l0,12.64l-5.27,0l0,-23.22l5.04,0l0.09,3.24c1.62,-2.52 4.01,-3.82 7.2,-3.82z" fill="rgb(199,182,159)" fill-rule="nonzero" id="svg_53" stroke-dashoffset="0" stroke-miterlimit="4" transform="translate(-571.67 -1166.6)"/>
    </g>
    <g id="svg_54" transform="matrix(0.58 0 0 0.58 997.08 214.06)">
     <path d="m253.92,1395.6l0.09,-3.29l4.77,0l0,23c0,3.28 -0.99,5.76 -2.88,7.42c-1.94,1.71 -4.64,2.52 -8.1,2.52c-3.06,0 -5.49,-0.58 -7.25,-1.84c-1.75,-1.26 -2.74,-3.06 -3.01,-5.49l4.95,0c0.45,2.25 2.2,3.33 5.26,3.33c2.03,0 3.51,-0.45 4.41,-1.35c0.9,-0.9 1.4,-2.39 1.4,-4.37l0,-3.06c-1.62,2.21 -3.92,3.29 -6.8,3.29c-3.01,0 -5.44,-1.13 -7.24,-3.42c-1.89,-2.25 -2.79,-5.22 -2.79,-8.82c0,-3.56 0.9,-6.39 2.79,-8.55c1.84,-2.12 4.23,-3.2 7.2,-3.2c3.24,0 5.67,1.31 7.2,3.83zm-6.21,15.66c1.71,0 3.15,-0.68 4.27,-2.12c1.08,-1.39 1.67,-3.24 1.67,-5.58c0,-2.34 -0.54,-4.18 -1.62,-5.49c-1.17,-1.3 -2.61,-1.98 -4.32,-1.98c-1.8,0 -3.2,0.68 -4.23,1.98c-1.08,1.35 -1.58,3.15 -1.58,5.45c0,2.38 0.5,4.27 1.58,5.67c1.03,1.39 2.43,2.07 4.23,2.07z" fill="rgb(199,182,159)" fill-rule="nonzero" id="svg_55" stroke-dashoffset="0" stroke-miterlimit="4" transform="translate(-606.72 -1171.48)"/>
    </g>
    <g id="svg_56" transform="matrix(0.58 0 0 0.58 1024.15 211.45)">
     <circle cx="-358.97" cy="237.03" fill="rgb(199,182,159)" fill-rule="nonzero" id="svg_57" r="5.5" stroke-dashoffset="0" stroke-miterlimit="4"/>
    </g>
   </g>
  </g>
 </g>
</svg>